<svg width="498" height="406" viewBox="0 0 498 406" fill="none" xmlns="http://www.w3.org/2000/svg">
<path opacity="0.34" d="M15 375.1H482.4C490.7 375.1 497.4 381.8 497.4 390.1C497.4 398.4 490.7 405.1 482.4 405.1H15C6.7 405.1 0 398.4 0 390.1C0 381.8 6.7 375.1 15 375.1Z" fill="#353535"/>
<path d="M105 3H341C350.9 3 359 11.1 359 21V325.8C359 335.7 350.9 343.8 341 343.8H105C95.1 343.8 87 335.7 87 325.8V21C87 11 95.1 3 105 3Z" fill="#F7E4CB"/>
<path d="M105 3H341C350.9 3 359 11.1 359 21V325.8C359 335.7 350.9 343.8 341 343.8H105C95.1 343.8 87 335.7 87 325.8V21C87 11 95.1 3 105 3Z" fill="#E0C5AA"/>
<path d="M347 31V311C347 316.7 342.4 321.2 336.8 321.2H109.3C103.6 321.2 99.1001 316.6 99.1001 311V31C99.1001 25.3 103.7 20.8 109.3 20.8H336.8C342.4 20.8 347 25.4 347 31Z" fill="#F7E4CB"/>
<path d="M341 346.8H105C93.4 346.8 84 337.4 84 325.8V21C84 9.4 93.4 0 105 0H341C352.6 0 362 9.4 362 21V325.8C362 337.4 352.6 346.8 341 346.8ZM105 6C96.7 6 90 12.7 90 21V325.8C90 334.1 96.7 340.8 105 340.8H341C349.3 340.8 356 334.1 356 325.8V21C356 12.7 349.3 6 341 6H105Z" fill="#353535"/>
<path d="M332 47.5V210.1C332 215.5 327.7 219.8 322.3 219.8H123.7C118.3 219.8 114 215.5 114 210.1V47.5C114 42.1 118.3 37.8 123.7 37.8H322.3C327.7 37.8 332 42.1 332 47.5Z" fill="#E0C5AA"/>
<path d="M321.6 65.5V191.9C321.6 201.4 313.9 209.1 304.4 209.1H141.7C132.2 209.1 124.5 201.4 124.5 191.9V65.5C124.5 56 132.2 48.3 141.7 48.3H304.3C313.9 48.3 321.6 56 321.6 65.5Z" fill="#353535"/>
<path opacity="0.3" d="M304.3 48.3H284.1C287.7 55.9 289.6 64.1 289.6 72.5C289.6 130.3 242.7 177.2 184.9 177.2H148.7C140.3 177.2 132.1 175.3 124.5 171.7V191.9C124.5 201.4 132.2 209.1 141.7 209.1H304.3C313.8 209.1 321.5 201.4 321.5 191.9V65.5C321.6 56 313.8 48.3 304.3 48.3Z" fill="#282828"/>
<path d="M293.5 260.8V257.7H224.7V245.7H293.5V242.6C293.5 241.6 294.3 240.7 295.4 240.7H331.6C332.6 240.7 333.5 241.5 333.5 242.6V260.8C333.5 261.8 332.7 262.7 331.6 262.7H295.4C294.3 262.7 293.5 261.9 293.5 260.8Z" fill="#E0C5AA"/>
<path d="M328.3 248.7H324V254.7H328.3V248.7Z" fill="#353535"/>
<path d="M142.1 298H122.7C121.1 298 119.8 296.7 119.8 295.1V275.7C119.8 274.1 121.1 272.8 122.7 272.8H142.1C143.7 272.8 145 274.1 145 275.7V295.1C145 296.7 143.7 298 142.1 298ZM122.7 274.8C122.2 274.8 121.8 275.2 121.8 275.7V295.1C121.8 295.6 122.2 296 122.7 296H142.1C142.6 296 143 295.6 143 295.1V275.7C143 275.2 142.6 274.8 142.1 274.8H122.7Z" fill="#353535"/>
<path d="M387.7 390.1C387.7 380.2 398.2 372.1 411.2 372.1C424.2 372.1 434.7 380.2 434.7 390.1H387.7Z" fill="#F2EBE1"/>
<path d="M434.7 393.1H387.7C386 393.1 384.7 391.8 384.7 390.1C384.7 378.5 396.6 369.1 411.2 369.1C425.8 369.1 437.7 378.5 437.7 390.1C437.7 391.7 436.3 393.1 434.7 393.1ZM391.1 387.1H431.3C429.4 380.3 421.1 375.1 411.2 375.1C401.3 375.1 393 380.3 391.1 387.1Z" fill="#353535"/>
<path d="M342 345H104V369H342V345Z" fill="#E0C5AA"/>
<path d="M342 345H104V354.9H342V345Z" fill="#C6A485"/>
<path d="M342 372H104C102.3 372 101 370.7 101 369V345C101 343.3 102.3 342 104 342H342C343.7 342 345 343.3 345 345V369C345 370.7 343.7 372 342 372ZM107 366H339V348H107V366V366Z" fill="#353535"/>
<path d="M299 360.1H147V372.1H299V360.1Z" fill="#E0C5AA"/>
<path d="M357 360.1H337V372.1H357V360.1Z" fill="#E0C5AA"/>
<path d="M328 360.1H308V372.1H328V360.1Z" fill="#E0C5AA"/>
<path d="M138 360.1H118V372.1H138V360.1Z" fill="#E0C5AA"/>
<path d="M109 360.1H89V372.1H109V360.1Z" fill="#E0C5AA"/>
<path d="M377.1 372.1H68.7998V390.1H377.1V372.1Z" fill="#F7E4CB"/>
<path d="M377.2 393.1H68.7998C67.0998 393.1 65.7998 391.8 65.7998 390.1V372.1C65.7998 370.4 67.0998 369.1 68.7998 369.1H377.1C378.8 369.1 380.1 370.4 380.1 372.1V390.1C380.2 391.7 378.8 393.1 377.2 393.1ZM71.7998 387.1H374.1V375.1H71.7998V387.1Z" fill="#353535"/>
<path d="M299 375.1H147C145.3 375.1 144 373.8 144 372.1V360.1C144 358.4 145.3 357.1 147 357.1H299C300.7 357.1 302 358.4 302 360.1V372.1C302 373.7 300.7 375.1 299 375.1ZM150 369.1H296V363.1H150V369.1V369.1Z" fill="#353535"/>
<path d="M357 375.1H337C335.3 375.1 334 373.8 334 372.1V360.1C334 358.4 335.3 357.1 337 357.1H357C358.7 357.1 360 358.4 360 360.1V372.1C360 373.7 358.7 375.1 357 375.1ZM340 369.1H354V363.1H340V369.1Z" fill="#353535"/>
<path d="M328 375.1H308C306.3 375.1 305 373.8 305 372.1V360.1C305 358.4 306.3 357.1 308 357.1H328C329.7 357.1 331 358.4 331 360.1V372.1C331 373.7 329.7 375.1 328 375.1ZM311 369.1H325V363.1H311V369.1Z" fill="#353535"/>
<path d="M138 375.1H118C116.3 375.1 115 373.8 115 372.1V360.1C115 358.4 116.3 357.1 118 357.1H138C139.7 357.1 141 358.4 141 360.1V372.1C141 373.7 139.7 375.1 138 375.1ZM121 369.1H135V363.1H121V369.1Z" fill="#353535"/>
<path d="M109 375.1H89C87.3 375.1 86 373.8 86 372.1V360.1C86 358.4 87.3 357.1 89 357.1H109C110.7 357.1 112 358.4 112 360.1V372.1C112 373.7 110.7 375.1 109 375.1ZM92 369.1H106V363.1H92V369.1Z" fill="#353535"/>
<path d="M134.6 283.6C133.7 282.8 133.1 281.7 132.8 280.5H126.5C125.7 281.4 125.2 282.5 124.9 283.6H134.6Z" fill="#CF9742"/>
<path d="M132.6 279.2C132.6 278.7 132.7 278.2 132.8 277.7C132.7 277.7 132.5 277.7 132.4 277.7C130.1 277.7 127.9 278.7 126.5 280.5H132.8C132.7 280 132.6 279.6 132.6 279.2Z" fill="#6E9546"/>
<path d="M126.5 290.4H138.3C139.1 289.5 139.6 288.4 139.9 287.3H124.9C125.2 288.4 125.8 289.5 126.5 290.4Z" fill="#7C4D83"/>
<path d="M132.4 293.1C134.7 293.1 136.8 292.1 138.3 290.4H126.5C128 292.1 130.2 293.1 132.4 293.1Z" fill="#4D8DB9"/>
<path d="M124.7 285.4C124.7 286 124.8 286.6 124.9 287.3H139.9C140.1 286.7 140.1 286.1 140.1 285.4C140.1 285.3 140.1 285.1 140.1 285C138.1 285.5 136 285 134.5 283.6H124.9C124.8 284.2 124.7 284.8 124.7 285.4Z" fill="#CB6757"/>
<path d="M168.6 73.3H152.5C150.3 73.3 148.5 71.5 148.5 69.3C148.5 67.1 150.3 65.3 152.5 65.3H168.6C170.8 65.3 172.6 67.1 172.6 69.3C172.6 71.5 170.8 73.3 168.6 73.3Z" fill="white"/>
<path d="M242.7 73.3H185.3C183.1 73.3 181.3 71.5 181.3 69.3C181.3 67.1 183.1 65.3 185.3 65.3H242.7C244.9 65.3 246.7 67.1 246.7 69.3C246.7 71.5 244.9 73.3 242.7 73.3Z" fill="white"/>
<path d="M298.8 244H326.4C327.4 244 328.3 244.8 328.3 245.9V250.7H296.9V245.9C296.9 244.9 297.7 244 298.8 244Z" fill="#353535"/>
<path d="M296.9 251.7H328.3V257.5C328.3 258.5 327.5 259.4 326.4 259.4H298.8C297.8 259.4 296.9 258.6 296.9 257.5V251.7Z" fill="#353535"/>
<path d="M229.8 248.7H324.4C324.9 248.7 325.4 249.1 325.4 249.7V253.8C325.4 254.3 325 254.8 324.4 254.8H229.8C229.3 254.8 228.8 254.4 228.8 253.8V249.7C228.8 249.1 229.3 248.7 229.8 248.7Z" fill="#282828"/>
</svg>
