<svg width="40" height="40" viewBox="0 0 40 40" fill="none" xmlns="http://www.w3.org/2000/svg">
<circle cx="20" cy="20" r="20" fill="white"/>
<path d="M20 0C8.95 0 0 8.99882 0 20.0974C0 28.9786 5.73 36.51 13.675 39.1653C14.675 39.3545 15.0417 38.7324 15.0417 38.199C15.0417 37.7218 15.025 36.4572 15.0167 34.7818C9.45333 35.9936 8.28 32.0856 8.28 32.0856C7.37 29.766 6.055 29.1456 6.055 29.1456C4.24333 27.8998 6.195 27.9253 6.195 27.9253C8.20333 28.0651 9.25833 29.9961 9.25833 29.9961C11.0417 33.069 13.94 32.181 15.0833 31.668C15.2633 30.3676 15.7783 29.4831 16.35 28.9803C11.9083 28.4775 7.24 26.7493 7.24 19.0492C7.24 16.8557 8.015 15.0628 9.29833 13.6567C9.07333 13.1488 8.39833 11.1054 9.47333 8.33755C9.47333 8.33755 11.1483 7.79898 14.9733 10.3981C16.5733 9.95154 18.2733 9.72998 19.9733 9.71975C21.6733 9.72998 23.3733 9.95154 24.9733 10.3981C28.7733 7.79898 30.4483 8.33755 30.4483 8.33755C31.5233 11.1054 30.8483 13.1488 30.6483 13.6567C31.9233 15.0628 32.6983 16.8557 32.6983 19.0492C32.6983 26.7698 28.0233 28.469 23.5733 28.9633C24.2733 29.5666 24.9233 30.7988 24.9233 32.6821C24.9233 35.3715 24.8983 37.5326 24.8983 38.1853C24.8983 38.712 25.2483 39.3409 26.2733 39.1398C34.275 36.5015 40 28.965 40 20.0974C40 8.99882 31.045 0 20 0V0Z" fill="#212121"/>
</svg>
