<svg width="83" height="70" viewBox="0 0 83 70" fill="none" xmlns="http://www.w3.org/2000/svg">
<g clip-path="url(#clip0)">
<rect width="70" height="70" fill="white"/>
<rect width="70" height="70" fill="#395A8C"/>
<path d="M35.0933 47.7333C33.2578 47.7333 31.5778 47.4066 30.0533 46.7533C28.5289 46.0688 27.2222 45.151 26.1333 43.9999C25.0444 42.8488 24.1889 41.511 23.5667 39.9866C22.9756 38.431 22.68 36.7977 22.68 35.0866C22.68 33.3755 22.9756 31.7577 23.5667 30.2333C24.1889 28.7088 25.0444 27.371 26.1333 26.2199C27.2533 25.0688 28.5756 24.1666 30.1 23.5133C31.6244 22.8288 33.3044 22.4866 35.14 22.4866C36.9756 22.4866 38.64 22.8288 40.1333 23.5133C41.6578 24.1977 42.9489 25.1155 44.0067 26.2666C45.0644 27.3866 45.8733 28.7088 46.4333 30.2333C47.0244 31.7266 47.32 33.2822 47.32 34.8999C47.32 35.2422 47.3044 35.5533 47.2733 35.8333C47.2733 36.1133 47.2578 36.331 47.2267 36.4866H27.02C27.1133 37.6999 27.3933 38.8044 27.86 39.7999C28.3267 40.7955 28.9333 41.651 29.68 42.3666C30.4267 43.0822 31.2667 43.6422 32.2 44.0466C33.1644 44.451 34.1756 44.6533 35.2333 44.6533C35.98 44.6533 36.7111 44.5599 37.4267 44.3733C38.1422 44.1555 38.8111 43.8755 39.4333 43.5333C40.0556 43.191 40.6 42.771 41.0667 42.2733C41.5644 41.7755 41.9378 41.2155 42.1867 40.5933L45.7333 41.5733C45.3289 42.4755 44.7689 43.2999 44.0533 44.0466C43.3689 44.7933 42.56 45.4466 41.6267 46.0066C40.7244 46.5355 39.7133 46.9555 38.5933 47.2666C37.4733 47.5777 36.3067 47.7333 35.0933 47.7333ZM43.4467 33.4533C43.3533 32.3022 43.0578 31.2444 42.56 30.2799C42.0933 29.2844 41.4867 28.4444 40.74 27.7599C40.0244 27.0755 39.1844 26.5466 38.22 26.1733C37.2556 25.7688 36.2289 25.5666 35.14 25.5666C34.0511 25.5666 33.0244 25.7688 32.06 26.1733C31.0956 26.5466 30.24 27.091 29.4933 27.8066C28.7778 28.491 28.1867 29.3155 27.72 30.2799C27.2844 31.2444 27.02 32.3022 26.9267 33.4533H43.4467Z" fill="white"/>
<circle cx="17.2667" cy="11.2" r="7" fill="white"/>
<circle cx="59.9667" cy="57.1667" r="3.5" fill="white"/>
<circle cx="11.2" cy="70.0001" r="16.3333" fill="white"/>
<circle cx="70.9333" cy="21.4667" r="11.6667" fill="white"/>
</g>
<circle cx="70.9333" cy="21.4667" r="11.6667" fill="white"/>
<defs>
<clipPath id="clip0">
<rect width="70" height="70" fill="white"/>
</clipPath>
</defs>
</svg>
