<svg width="245" height="70" viewBox="0 0 245 70" fill="none" xmlns="http://www.w3.org/2000/svg">
<rect width="245" height="70" fill="white"/>
<path d="M27.965 48.05C26.6817 48.05 25.4917 47.805 24.395 47.315C23.2983 46.8016 22.3417 46.1133 21.525 45.25C20.7317 44.3633 20.1017 43.3483 19.635 42.205C19.1917 41.0616 18.97 39.8366 18.97 38.53C18.97 37.2466 19.1917 36.045 19.635 34.925C20.1017 33.7816 20.7317 32.79 21.525 31.95C22.3183 31.0866 23.2517 30.41 24.325 29.92C25.4217 29.4299 26.6 29.1849 27.86 29.1849C29.1433 29.1849 30.3333 29.4416 31.43 29.955C32.5267 30.445 33.4717 31.1216 34.265 31.985C35.0583 32.825 35.6767 33.8166 36.12 34.96C36.5633 36.08 36.785 37.27 36.785 38.53C36.785 38.6466 36.785 38.7983 36.785 38.985C36.785 39.1483 36.7733 39.2533 36.75 39.3H20.79C20.86 40.35 21.105 41.33 21.525 42.24C21.945 43.1266 22.47 43.8966 23.1 44.55C23.7533 45.2033 24.5 45.7166 25.34 46.09C26.18 46.4633 27.0783 46.65 28.035 46.65C28.665 46.65 29.2833 46.5683 29.89 46.405C30.4967 46.2183 31.0567 45.9733 31.57 45.67C32.1067 45.3666 32.5733 45.005 32.97 44.585C33.39 44.1416 33.7167 43.6633 33.95 43.15L35.49 43.57C35.2333 44.2233 34.8483 44.83 34.335 45.39C33.845 45.9266 33.2617 46.3933 32.585 46.79C31.9317 47.1866 31.2083 47.49 30.415 47.7C29.6217 47.9333 28.805 48.05 27.965 48.05ZM35.105 37.9C35.035 36.8266 34.79 35.8466 34.37 34.96C33.9733 34.0733 33.4483 33.315 32.795 32.685C32.165 32.0316 31.43 31.53 30.59 31.18C29.75 30.8066 28.8517 30.6199 27.895 30.6199C26.9383 30.6199 26.04 30.8066 25.2 31.18C24.36 31.53 23.6133 32.0316 22.96 32.685C22.33 33.315 21.8167 34.085 21.42 34.995C21.0467 35.8816 20.825 36.85 20.755 37.9H35.105ZM39.7759 29.4999L45.6559 37.025L45.9359 37.515L46.2159 37.025L52.0609 29.4999H54.0209L46.9509 38.635L53.9859 47.7H52.0609L46.2159 40.21L45.9359 39.755L45.6559 40.21L39.8109 47.7H37.8859L44.9209 38.635L37.8509 29.4999H39.7759ZM66.2391 48.05C64.6758 48.05 63.2758 47.6416 62.0391 46.825C60.8258 45.985 59.8458 44.97 59.0991 43.78V55.155H57.3491V29.4999H58.9591V33.14C59.7058 31.9733 60.6858 31.0283 61.8991 30.305C63.1358 29.5583 64.4541 29.1849 65.8541 29.1849C67.1141 29.1849 68.2808 29.4533 69.3541 29.9899C70.4275 30.5266 71.3491 31.2383 72.1191 32.125C72.8891 32.9883 73.4841 33.9916 73.9041 35.135C74.3475 36.2783 74.5691 37.445 74.5691 38.635C74.5691 39.895 74.3708 41.0966 73.9741 42.24C73.5775 43.3833 73.0058 44.3866 72.2591 45.25C71.5358 46.1133 70.6608 46.8016 69.6341 47.315C68.6075 47.805 67.4758 48.05 66.2391 48.05ZM65.8191 46.475C66.8691 46.475 67.8258 46.2533 68.6891 45.81C69.5525 45.3666 70.2875 44.7833 70.8941 44.06C71.5008 43.3133 71.9675 42.4733 72.2941 41.54C72.6208 40.5833 72.7841 39.615 72.7841 38.635C72.7841 37.585 72.5975 36.5933 72.2241 35.66C71.8508 34.7033 71.3258 33.8633 70.6491 33.14C69.9958 32.4166 69.2258 31.845 68.3391 31.425C67.4525 30.9816 66.5075 30.76 65.5041 30.76C64.8741 30.76 64.1975 30.9 63.4741 31.18C62.7741 31.4366 62.1091 31.7983 61.4791 32.265C60.8491 32.7083 60.3125 33.2216 59.8691 33.805C59.4258 34.3883 59.1691 35.0066 59.0991 35.66V41.645C59.4025 42.3216 59.7875 42.9516 60.2541 43.535C60.7208 44.1183 61.2458 44.6316 61.8291 45.075C62.4125 45.5183 63.0425 45.8683 63.7191 46.125C64.3958 46.3583 65.0958 46.475 65.8191 46.475ZM86.5148 48.05C85.2315 48.05 84.0415 47.805 82.9448 47.315C81.8481 46.8016 80.8915 46.1133 80.0748 45.25C79.2815 44.3633 78.6515 43.3483 78.1848 42.205C77.7415 41.0616 77.5198 39.8366 77.5198 38.53C77.5198 37.2466 77.7415 36.045 78.1848 34.925C78.6515 33.7816 79.2815 32.79 80.0748 31.95C80.8681 31.0866 81.8015 30.41 82.8748 29.92C83.9715 29.4299 85.1498 29.1849 86.4098 29.1849C87.6931 29.1849 88.8831 29.4416 89.9798 29.955C91.0765 30.445 92.0215 31.1216 92.8148 31.985C93.6081 32.825 94.2265 33.8166 94.6698 34.96C95.1131 36.08 95.3348 37.27 95.3348 38.53C95.3348 38.6466 95.3348 38.7983 95.3348 38.985C95.3348 39.1483 95.3231 39.2533 95.2998 39.3H79.3398C79.4098 40.35 79.6548 41.33 80.0748 42.24C80.4948 43.1266 81.0198 43.8966 81.6498 44.55C82.3031 45.2033 83.0498 45.7166 83.8898 46.09C84.7298 46.4633 85.6281 46.65 86.5848 46.65C87.2148 46.65 87.8331 46.5683 88.4398 46.405C89.0465 46.2183 89.6065 45.9733 90.1198 45.67C90.6565 45.3666 91.1231 45.005 91.5198 44.585C91.9398 44.1416 92.2665 43.6633 92.4998 43.15L94.0398 43.57C93.7831 44.2233 93.3981 44.83 92.8848 45.39C92.3948 45.9266 91.8115 46.3933 91.1348 46.79C90.4815 47.1866 89.7581 47.49 88.9648 47.7C88.1715 47.9333 87.3548 48.05 86.5148 48.05ZM93.6548 37.9C93.5848 36.8266 93.3398 35.8466 92.9198 34.96C92.5231 34.0733 91.9981 33.315 91.3448 32.685C90.7148 32.0316 89.9798 31.53 89.1398 31.18C88.2998 30.8066 87.4015 30.6199 86.4448 30.6199C85.4881 30.6199 84.5898 30.8066 83.7498 31.18C82.9098 31.53 82.1631 32.0316 81.5098 32.685C80.8798 33.315 80.3665 34.085 79.9698 34.995C79.5965 35.8816 79.3748 36.85 79.3048 37.9H93.6548ZM107.795 31.075C106.162 31.1216 104.727 31.6116 103.49 32.545C102.277 33.455 101.425 34.715 100.935 36.325V47.7H99.1851V29.4999H100.865V33.98C101.495 32.6966 102.323 31.6583 103.35 30.8649C104.4 30.0483 105.52 29.5816 106.71 29.465C106.943 29.4416 107.153 29.43 107.34 29.43C107.527 29.43 107.678 29.43 107.795 29.43V31.075ZM111.114 47.7V29.4999H112.864V47.7H111.114ZM111.114 25.37V22.15H112.864V25.37H111.114ZM145.1 47.7H143.35V37.55C143.35 35.24 142.988 33.5366 142.265 32.44C141.565 31.3433 140.48 30.795 139.01 30.795C138.263 30.795 137.552 30.935 136.875 31.215C136.198 31.495 135.58 31.8916 135.02 32.405C134.46 32.895 133.97 33.49 133.55 34.19C133.153 34.8666 132.838 35.625 132.605 36.465V47.7H130.855V37.55C130.855 35.2166 130.505 33.5133 129.805 32.44C129.105 31.3433 128.02 30.795 126.55 30.795C125.803 30.795 125.092 30.935 124.415 31.215C123.762 31.4716 123.155 31.8566 122.595 32.37C122.035 32.86 121.533 33.455 121.09 34.155C120.67 34.8316 120.343 35.59 120.11 36.43V47.7H118.36V29.4999H120.005V33.84C120.752 32.37 121.732 31.2266 122.945 30.41C124.158 29.5933 125.5 29.1849 126.97 29.1849C128.51 29.1849 129.758 29.64 130.715 30.55C131.672 31.46 132.243 32.65 132.43 34.12C134.157 30.83 136.537 29.1849 139.57 29.1849C141.553 29.1849 142.965 29.8966 143.805 31.32C144.668 32.72 145.1 34.6916 145.1 37.235V47.7ZM158.121 48.05C156.838 48.05 155.648 47.805 154.551 47.315C153.455 46.8016 152.498 46.1133 151.681 45.25C150.888 44.3633 150.258 43.3483 149.791 42.205C149.348 41.0616 149.126 39.8366 149.126 38.53C149.126 37.2466 149.348 36.045 149.791 34.925C150.258 33.7816 150.888 32.79 151.681 31.95C152.475 31.0866 153.408 30.41 154.481 29.92C155.578 29.4299 156.756 29.1849 158.016 29.1849C159.3 29.1849 160.49 29.4416 161.586 29.955C162.683 30.445 163.628 31.1216 164.421 31.985C165.215 32.825 165.833 33.8166 166.276 34.96C166.72 36.08 166.941 37.27 166.941 38.53C166.941 38.6466 166.941 38.7983 166.941 38.985C166.941 39.1483 166.93 39.2533 166.906 39.3L150.946 39.3C151.016 40.35 151.261 41.33 151.681 42.24C152.101 43.1266 152.626 43.8966 153.256 44.55C153.91 45.2033 154.656 45.7166 155.496 46.09C156.336 46.4633 157.235 46.65 158.191 46.65C158.821 46.65 159.44 46.5683 160.046 46.405C160.653 46.2183 161.213 45.9733 161.726 45.67C162.263 45.3666 162.73 45.005 163.126 44.585C163.546 44.1416 163.873 43.6633 164.106 43.15L165.646 43.57C165.39 44.2233 165.005 44.83 164.491 45.39C164.001 45.9266 163.418 46.3933 162.741 46.79C162.088 47.1866 161.365 47.49 160.571 47.7C159.778 47.9333 158.961 48.05 158.121 48.05ZM165.261 37.9C165.191 36.8266 164.946 35.8466 164.526 34.96C164.13 34.0733 163.605 33.315 162.951 32.685C162.321 32.0316 161.586 31.53 160.746 31.18C159.906 30.8066 159.008 30.6199 158.051 30.6199C157.095 30.6199 156.196 30.8066 155.356 31.18C154.516 31.53 153.77 32.0316 153.116 32.685C152.486 33.315 151.973 34.085 151.576 34.995C151.203 35.8816 150.981 36.85 150.911 37.9L165.261 37.9ZM185.667 47.7H183.917V37.55C183.917 35.1933 183.578 33.4783 182.902 32.405C182.248 31.3316 181.198 30.795 179.752 30.795C178.982 30.795 178.212 30.935 177.442 31.215C176.695 31.495 175.995 31.8916 175.342 32.405C174.688 32.9183 174.117 33.525 173.627 34.225C173.137 34.9016 172.775 35.6366 172.542 36.43V47.7H170.792V29.4999H172.437V33.84C172.81 33.14 173.265 32.51 173.802 31.95C174.362 31.3666 174.98 30.8766 175.657 30.48C176.357 30.0599 177.092 29.7449 177.862 29.5349C178.632 29.3016 179.425 29.1849 180.242 29.1849C182.225 29.1849 183.625 29.885 184.442 31.285C185.258 32.6616 185.667 34.645 185.667 37.235V47.7ZM198.907 46.825C198.813 46.8716 198.65 46.965 198.417 47.105C198.207 47.2216 197.927 47.3383 197.577 47.455C197.25 47.5716 196.877 47.6766 196.457 47.77C196.037 47.8633 195.582 47.91 195.092 47.91C194.602 47.91 194.135 47.84 193.692 47.7C193.272 47.56 192.898 47.35 192.572 47.07C192.245 46.79 191.988 46.4516 191.802 46.055C191.615 45.6583 191.522 45.1916 191.522 44.655V30.935H188.967V29.4999H191.522V23.27H193.272V29.4999H197.507V30.935H193.272V44.235C193.272 44.9116 193.505 45.425 193.972 45.775C194.438 46.1016 194.963 46.265 195.547 46.265C196.27 46.265 196.888 46.1483 197.402 45.915C197.938 45.6583 198.265 45.495 198.382 45.425L198.907 46.825ZM206.478 48.05C205.638 48.05 204.856 47.91 204.133 47.63C203.409 47.3266 202.768 46.93 202.208 46.44C201.671 45.9266 201.251 45.3316 200.948 44.655C200.644 43.955 200.493 43.2083 200.493 42.415C200.493 41.6216 200.679 40.8983 201.053 40.245C201.426 39.5916 201.939 39.0316 202.593 38.565C203.269 38.075 204.074 37.7016 205.008 37.445C205.941 37.165 206.968 37.025 208.088 37.025C209.068 37.025 210.048 37.1183 211.028 37.305C212.031 37.4683 212.929 37.7016 213.723 38.005V36.22C213.723 34.4933 213.233 33.1283 212.253 32.125C211.273 31.0983 209.943 30.585 208.263 30.585C207.376 30.585 206.431 30.7716 205.428 31.145C204.448 31.5183 203.444 32.055 202.418 32.755L201.753 31.565C204.086 29.9783 206.303 29.1849 208.403 29.1849C210.596 29.1849 212.323 29.8266 213.583 31.1099C214.843 32.37 215.473 34.12 215.473 36.36V45.25C215.473 45.8333 215.729 46.125 216.243 46.125V47.7C216.126 47.7233 215.998 47.735 215.858 47.735C215.741 47.7583 215.636 47.77 215.543 47.77C215.076 47.77 214.703 47.6183 214.423 47.315C214.143 46.9883 213.979 46.6033 213.933 46.16V44.655C213.093 45.7516 212.019 46.5916 210.713 47.175C209.406 47.7583 207.994 48.05 206.478 48.05ZM206.828 46.65C208.181 46.65 209.418 46.3933 210.538 45.88C211.681 45.3666 212.556 44.69 213.163 43.85C213.536 43.36 213.723 42.8933 213.723 42.45V39.23C212.883 38.9033 212.008 38.6583 211.098 38.495C210.188 38.3316 209.243 38.25 208.263 38.25C207.353 38.25 206.524 38.355 205.778 38.565C205.031 38.7516 204.389 39.02 203.853 39.37C203.316 39.72 202.896 40.1516 202.593 40.665C202.313 41.155 202.173 41.7033 202.173 42.31C202.173 42.9166 202.289 43.4883 202.523 44.025C202.756 44.5616 203.083 45.0283 203.503 45.425C203.923 45.7983 204.413 46.1016 204.973 46.335C205.556 46.545 206.174 46.65 206.828 46.65ZM220.936 22.15H222.721V44.095C222.721 44.7716 222.908 45.3083 223.281 45.705C223.678 46.1016 224.215 46.3 224.891 46.3C225.148 46.3 225.451 46.2766 225.801 46.23C226.175 46.16 226.513 46.0666 226.816 45.95L227.166 47.35C226.77 47.5133 226.28 47.6416 225.696 47.735C225.113 47.8516 224.611 47.91 224.191 47.91C223.211 47.91 222.418 47.6183 221.811 47.035C221.228 46.4283 220.936 45.6233 220.936 44.62V22.15Z" fill="#395A8C"/>
<rect x="108.15" y="21.3501" width="7.7" height="4.9" fill="white"/>
<circle cx="112" cy="24.15" r="1.4" fill="#395A8C"/>
</svg>
