<svg width="564" height="285" viewBox="0 0 564 285" fill="none" xmlns="http://www.w3.org/2000/svg">
<path d="M556.048 269.1H7.95199C3.56023 269.1 0 272.66 0 277.05C0 281.441 3.56023 285 7.95199 285H556.048C560.44 285 564 281.441 564 277.05C564 272.66 560.44 269.1 556.048 269.1Z" fill="#C9C9C9"/>
<path d="M111.089 202.84C107.045 202.809 103.178 201.181 100.329 198.312C97.4806 195.442 95.8821 191.564 95.8821 187.521C95.8821 183.478 97.4806 179.599 100.329 176.73C103.178 173.86 107.045 172.233 111.089 172.202H197.708V202.84H111.089Z" fill="#CECECE"/>
<path d="M111.089 166.898H202.722V208.136H111.089C105.619 208.136 100.374 205.964 96.5059 202.097C92.6382 198.23 90.4653 192.986 90.4653 187.518V187.518C90.4652 184.81 90.9986 182.129 92.035 179.627C93.0714 177.125 94.5905 174.852 96.5056 172.938C98.4207 171.023 100.694 169.504 103.197 168.468C105.699 167.432 108.381 166.898 111.089 166.898V166.898Z" fill="white"/>
<path d="M197.708 184.535H105.486C105.017 184.535 104.568 184.349 104.236 184.018C103.905 183.687 103.719 183.237 103.719 182.769C103.719 182.3 103.905 181.851 104.236 181.52C104.568 181.188 105.017 181.002 105.486 181.002H197.708C198.176 181.002 198.626 181.188 198.957 181.52C199.289 181.851 199.475 182.3 199.475 182.769C199.475 183.237 199.289 183.687 198.957 184.018C198.626 184.349 198.176 184.535 197.708 184.535Z" fill="#1F3969"/>
<path d="M197.708 193.891H105.486C105.017 193.891 104.568 193.705 104.236 193.373C103.905 193.042 103.719 192.593 103.719 192.124C103.719 191.656 103.905 191.206 104.236 190.875C104.568 190.544 105.017 190.357 105.486 190.357H197.708C198.176 190.357 198.626 190.544 198.957 190.875C199.289 191.206 199.475 191.656 199.475 192.124C199.475 192.593 199.289 193.042 198.957 193.373C198.626 193.705 198.176 193.891 197.708 193.891Z" fill="#1F3969"/>
<path d="M197.708 204.606H111.089C106.578 204.574 102.263 202.76 99.0839 199.559C95.9054 196.358 94.1216 192.031 94.1216 187.521C94.1216 183.011 95.9054 178.683 99.0839 175.483C102.263 172.282 106.578 170.468 111.089 170.435H197.708C198.176 170.435 198.626 170.621 198.957 170.953C199.289 171.284 199.475 171.733 199.475 172.202V202.84C199.475 203.308 199.289 203.758 198.957 204.089C198.626 204.42 198.176 204.606 197.708 204.606ZM111.089 173.965C107.513 173.994 104.093 175.434 101.574 177.973C99.0556 180.511 97.6424 183.942 97.6424 187.517C97.6424 191.093 99.0556 194.523 101.574 197.062C104.093 199.6 107.513 201.041 111.089 201.069H195.941V173.965H111.089Z" fill="#1F3969"/>
<path d="M111.089 202.84C107.045 202.809 103.178 201.182 100.329 198.312C97.4806 195.443 95.8821 191.564 95.8821 187.521C95.8821 183.478 97.4806 179.599 100.329 176.73C103.178 173.86 107.045 172.233 111.089 172.202H199.188L202.722 166.902H111.089C105.619 166.902 100.374 169.074 96.5059 172.941C92.6382 176.808 90.4653 182.052 90.4653 187.52C90.4652 190.228 90.9986 192.909 92.035 195.411C93.0714 197.913 94.5905 200.186 96.5056 202.1C98.4207 204.015 100.694 205.534 103.197 206.57C105.699 207.606 108.381 208.14 111.089 208.14H202.722L199.188 202.84H111.089Z" fill="#FF3E3E"/>
<path d="M202.722 209.906H111.089C105.175 209.869 99.5156 207.494 95.3467 203.3C91.1778 199.106 88.8379 193.434 88.8379 187.521C88.8379 181.608 91.1778 175.936 95.3467 171.741C99.5156 167.547 105.175 165.173 111.089 165.135H202.722C203.042 165.136 203.355 165.222 203.63 165.387C203.904 165.551 204.128 165.787 204.279 166.068C204.43 166.35 204.502 166.668 204.486 166.987C204.471 167.307 204.369 167.616 204.192 167.882L200.658 173.182C200.496 173.424 200.278 173.622 200.021 173.759C199.765 173.897 199.478 173.969 199.188 173.969H111.089C107.513 173.997 104.093 175.438 101.574 177.976C99.0555 180.515 97.6422 183.945 97.6422 187.521C97.6422 191.096 99.0555 194.527 101.574 197.065C104.093 199.604 107.513 201.044 111.089 201.073H199.188C199.478 201.073 199.765 201.145 200.021 201.282C200.278 201.42 200.496 201.618 200.658 201.86L204.192 207.16C204.369 207.426 204.471 207.735 204.486 208.054C204.502 208.374 204.43 208.691 204.279 208.973C204.128 209.255 203.904 209.491 203.63 209.655C203.355 209.819 203.042 209.906 202.722 209.906ZM111.089 168.665C106.11 168.699 101.347 170.701 97.8383 174.232C94.3296 177.764 92.3605 182.54 92.3605 187.517C92.3605 192.495 94.3296 197.271 97.8383 200.802C101.347 204.334 106.11 206.335 111.089 206.369H199.423L198.245 204.603H111.089C106.578 204.57 102.262 202.756 99.0838 199.555C95.9052 196.355 94.1214 192.027 94.1214 187.517C94.1214 183.007 95.9052 178.68 99.0838 175.479C102.262 172.279 106.578 170.464 111.089 170.432H198.245L199.423 168.665H111.089Z" fill="#1F3969"/>
<g opacity="0.28">
<path opacity="0.28" d="M183.023 166.902H166.773V208.14H183.023V166.902Z" fill="#1F3969"/>
<path opacity="0.28" d="M183.023 209.906H166.773C166.305 209.906 165.855 209.72 165.524 209.389C165.193 209.057 165.006 208.608 165.006 208.14V166.898C165.006 166.43 165.193 165.981 165.524 165.649C165.855 165.318 166.305 165.132 166.773 165.132H183.023C183.492 165.132 183.941 165.318 184.272 165.649C184.604 165.981 184.79 166.43 184.79 166.898V208.136C184.791 208.368 184.745 208.598 184.657 208.813C184.568 209.028 184.438 209.223 184.274 209.387C184.11 209.552 183.915 209.682 183.7 209.771C183.485 209.86 183.255 209.906 183.023 209.906ZM168.541 206.373H181.256V168.665H168.541V206.373Z" fill="#1F3969"/>
</g>
<path d="M193.299 208.139H25.5081C22.2089 208.139 19.5344 210.813 19.5344 214.111V236.225C19.5344 239.524 22.2089 242.197 25.5081 242.197H193.299C196.598 242.197 199.272 239.524 199.272 236.225V214.111C199.272 210.813 196.598 208.139 193.299 208.139Z" fill="#50B56F"/>
<path d="M193.299 243.964H25.5117C23.4594 243.962 21.4917 243.146 20.0404 241.695C18.5891 240.244 17.7726 238.277 17.77 236.225V214.111C17.7726 212.06 18.5891 210.093 20.0404 208.642C21.4917 207.191 23.4594 206.375 25.5117 206.373H193.299C195.351 206.375 197.319 207.191 198.77 208.642C200.221 210.093 201.037 212.06 201.04 214.111V236.225C201.037 238.277 200.221 240.244 198.77 241.695C197.319 243.146 195.351 243.962 193.299 243.964V243.964ZM25.5117 209.906C24.3963 209.907 23.327 210.351 22.5382 211.139C21.7494 211.927 21.3056 212.996 21.3042 214.111V236.225C21.3056 237.34 21.7494 238.409 22.5382 239.198C23.327 239.986 24.3963 240.43 25.5117 240.431H193.299C194.414 240.429 195.483 239.986 196.272 239.197C197.06 238.409 197.504 237.34 197.505 236.225V214.111C197.504 212.997 197.06 211.928 196.272 211.139C195.483 210.351 194.414 209.907 193.299 209.906H25.5117Z" fill="#1F3969"/>
<g opacity="0.28">
<path opacity="0.28" d="M193.299 208.139H166.773V221.389C166.773 223.368 167.163 225.328 167.921 227.156C168.678 228.985 169.789 230.646 171.188 232.046C172.588 233.445 174.25 234.555 176.079 235.312C177.908 236.07 179.868 236.459 181.848 236.459H199.261C199.261 236.382 199.272 236.306 199.272 236.229V214.111C199.272 212.528 198.643 211.009 197.523 209.889C196.402 208.769 194.883 208.139 193.299 208.139Z" fill="#1F3969"/>
<path opacity="0.28" d="M199.261 238.223H181.848C177.383 238.218 173.102 236.442 169.944 233.286C166.787 230.129 165.011 225.849 165.006 221.385V208.136C165.006 207.667 165.193 207.218 165.524 206.887C165.855 206.555 166.305 206.369 166.773 206.369H193.299C195.351 206.371 197.319 207.188 198.77 208.638C200.221 210.089 201.037 212.056 201.04 214.108V236.222C201.04 236.31 201.035 236.398 201.029 236.481C201.001 236.939 200.806 237.37 200.479 237.691C200.153 238.013 199.719 238.202 199.261 238.223ZM168.541 209.906V221.389C168.544 224.916 169.948 228.298 172.442 230.792C174.937 233.286 178.32 234.689 181.848 234.693H197.503V214.112C197.501 212.997 197.058 211.928 196.269 211.14C195.48 210.352 194.411 209.908 193.296 209.907L168.541 209.906Z" fill="#1F3969"/>
</g>
<path d="M240.529 249.035H46.1931C48.5858 255.509 48.5858 262.626 46.1931 269.1H240.529C238.138 262.625 238.138 255.51 240.529 249.035V249.035Z" fill="#CECECE"/>
<path d="M245.799 243.696H40.9297V249.035H245.799V243.696Z" fill="#5F5AFF"/>
<path d="M245.799 250.802H40.9297C40.461 250.802 40.0116 250.616 39.6802 250.284C39.3488 249.953 39.1626 249.504 39.1626 249.035V243.696C39.1626 243.228 39.3488 242.778 39.6802 242.447C40.0116 242.116 40.461 241.93 40.9297 241.93H245.799C246.268 241.93 246.718 242.116 247.049 242.447C247.38 242.778 247.566 243.228 247.566 243.696V249.035C247.566 249.504 247.38 249.953 247.049 250.284C246.718 250.616 246.268 250.802 245.799 250.802ZM42.6968 247.268H244.032V245.463H42.6968V247.268Z" fill="#1F3969"/>
<path d="M245.799 269.1H40.9297V274.439H245.799V269.1Z" fill="#F6F9FD"/>
<path d="M245.799 269.1H40.9297V274.439H245.799V269.1Z" fill="#5F5AFF"/>
<path d="M245.799 276.206H40.9297C40.461 276.206 40.0116 276.02 39.6802 275.688C39.3488 275.357 39.1626 274.908 39.1626 274.439V269.098C39.1626 268.629 39.3488 268.18 39.6802 267.849C40.0116 267.517 40.461 267.331 40.9297 267.331H245.799C246.268 267.331 246.718 267.517 247.049 267.849C247.38 268.18 247.566 268.629 247.566 269.098V274.436C247.567 274.669 247.521 274.899 247.433 275.113C247.344 275.328 247.214 275.523 247.05 275.687C246.886 275.852 246.691 275.982 246.476 276.071C246.262 276.16 246.032 276.206 245.799 276.206ZM42.6968 272.672H244.032V270.864H42.6968V272.672Z" fill="#1F3969"/>
<path d="M347.652 255.583L344.99 225.858H301.335L298.676 255.583C298.057 262.487 293.905 269.098 287.387 274.377L287.379 274.44H358.953L358.945 274.377C352.427 269.098 348.271 262.485 347.652 255.583Z" fill="#BFCFE2"/>
<g opacity="0.28">
<path opacity="0.28" d="M301.335 225.856L299.737 243.696H346.588L344.99 225.856H301.335Z" fill="#1F3969"/>
<path opacity="0.28" d="M346.588 245.463H299.736C299.491 245.463 299.248 245.412 299.023 245.313C298.799 245.214 298.597 245.069 298.432 244.888C298.266 244.707 298.14 244.494 298.062 244.261C297.983 244.029 297.954 243.782 297.976 243.538L299.574 225.695C299.614 225.256 299.816 224.847 300.142 224.549C300.468 224.252 300.893 224.087 301.334 224.087H344.989C345.43 224.087 345.856 224.252 346.181 224.549C346.507 224.847 346.71 225.256 346.749 225.695L348.348 243.538C348.369 243.782 348.34 244.029 348.262 244.261C348.183 244.494 348.057 244.707 347.892 244.888C347.726 245.069 347.525 245.214 347.3 245.313C347.076 245.412 346.833 245.463 346.587 245.463H346.588ZM301.669 241.93H344.655L343.374 227.62H302.951L301.669 241.93Z" fill="#1F3969"/>
</g>
<path d="M358.949 276.206H287.375C287.125 276.206 286.878 276.153 286.65 276.05C286.422 275.947 286.218 275.798 286.052 275.61C285.886 275.423 285.762 275.203 285.688 274.964C285.614 274.725 285.591 274.474 285.621 274.225C285.678 273.751 285.91 273.315 286.271 273.002C292.575 267.898 296.354 261.655 296.912 255.424L299.575 225.7C299.615 225.26 299.817 224.852 300.143 224.554C300.469 224.256 300.894 224.091 301.335 224.091H344.989C345.43 224.091 345.856 224.256 346.181 224.554C346.507 224.852 346.709 225.26 346.749 225.7L349.413 255.424C349.97 261.655 353.749 267.897 360.054 273.002C360.41 273.29 360.64 273.706 360.696 274.161C360.726 274.413 360.704 274.669 360.63 274.912C360.557 275.156 360.433 275.381 360.268 275.574C360.105 275.766 359.903 275.922 359.676 276.031C359.449 276.139 359.201 276.199 358.949 276.206ZM291.893 272.673H354.428C349.415 267.58 346.42 261.689 345.888 255.739L343.369 227.624H302.951L300.432 255.74C299.899 261.69 296.909 267.581 291.893 272.673Z" fill="#1F3969"/>
<path d="M462.764 27.1106H183.561C177.705 27.1106 172.958 31.8563 172.958 37.7104V219.673C172.958 225.527 177.705 230.273 183.561 230.273H462.764C468.62 230.273 473.367 225.527 473.367 219.673V37.7104C473.367 31.8563 468.62 27.1106 462.764 27.1106Z" fill="white"/>
<path d="M462.764 27.1106H183.561C177.705 27.1106 172.958 31.8563 172.958 37.7104V219.673C172.958 225.527 177.705 230.273 183.561 230.273H462.764C468.62 230.273 473.367 225.527 473.367 219.673V37.7104C473.367 31.8563 468.62 27.1106 462.764 27.1106Z" fill="#BFCFE2"/>
<path d="M462.764 232.04H183.561C180.281 232.036 177.137 230.732 174.818 228.414C172.499 226.096 171.195 222.952 171.191 219.674V37.7114C171.195 34.4327 172.499 31.2893 174.818 28.9709C177.137 26.6525 180.281 25.3485 183.561 25.345H462.764C466.044 25.3485 469.188 26.6525 471.507 28.9709C473.826 31.2893 475.13 34.4327 475.134 37.7114V219.674C475.13 222.952 473.826 226.096 471.507 228.414C469.188 230.732 466.043 232.036 462.764 232.04V232.04ZM183.561 28.8782C181.218 28.8808 178.973 29.8123 177.316 31.4682C175.66 33.1242 174.728 35.3694 174.725 37.7114V219.674C174.728 222.016 175.66 224.261 177.316 225.917C178.973 227.573 181.218 228.504 183.561 228.507H462.764C465.106 228.504 467.352 227.573 469.008 225.917C470.665 224.261 471.597 222.016 471.599 219.674V37.7114C471.597 35.3694 470.665 33.1242 469.009 31.4682C467.352 29.8123 465.106 28.8808 462.764 28.8782H183.561Z" fill="#1F3969"/>
<path d="M458.346 196.345V42.127L187.979 42.127V196.345L458.346 196.345Z" fill="#F6F9FD"/>
<g opacity="0.28">
<path opacity="0.28" d="M197.71 27.1106V149.532C197.71 151.406 198.455 153.203 199.78 154.528C201.106 155.854 202.904 156.598 204.779 156.598H371.834C373.709 156.598 375.507 155.854 376.832 154.528C378.158 153.203 378.902 151.406 378.902 149.532V27.1106H197.71Z" fill="#1F3969"/>
<path opacity="0.28" d="M371.834 158.365H204.779C202.436 158.362 200.19 157.431 198.534 155.775C196.877 154.119 195.946 151.874 195.943 149.532V27.1106C195.943 26.6421 196.129 26.1927 196.461 25.8614C196.792 25.5301 197.242 25.344 197.71 25.344H378.902C379.371 25.344 379.821 25.5301 380.152 25.8614C380.483 26.1927 380.67 26.6421 380.67 27.1106V149.532C380.667 151.874 379.735 154.119 378.079 155.775C376.422 157.431 374.177 158.362 371.834 158.365ZM199.477 28.8772V149.532C199.479 150.937 200.038 152.284 201.032 153.277C202.026 154.271 203.373 154.83 204.779 154.831H371.834C373.24 154.83 374.587 154.271 375.581 153.278C376.575 152.284 377.134 150.937 377.135 149.532V28.8772H199.477Z" fill="#1F3969"/>
</g>
<path d="M458.346 198.113H187.979C187.51 198.113 187.061 197.927 186.729 197.596C186.398 197.264 186.212 196.815 186.212 196.346V42.127C186.212 41.6584 186.398 41.2091 186.729 40.8778C187.061 40.5465 187.51 40.3604 187.979 40.3604H458.346C458.815 40.3604 459.264 40.5465 459.596 40.8778C459.927 41.2091 460.113 41.6584 460.113 42.127V196.346C460.113 196.815 459.927 197.264 459.596 197.596C459.264 197.927 458.815 198.113 458.346 198.113ZM189.746 194.58H456.579V43.8936H189.746V194.58Z" fill="#1F3969"/>
<path d="M335.042 214.993H311.282C310.814 214.993 310.364 214.807 310.033 214.476C309.701 214.144 309.515 213.695 309.515 213.226C309.515 212.758 309.701 212.308 310.033 211.977C310.364 211.646 310.814 211.46 311.282 211.46H335.042C335.511 211.46 335.96 211.646 336.291 211.977C336.623 212.308 336.809 212.758 336.809 213.226C336.809 213.695 336.623 214.144 336.291 214.476C335.96 214.807 335.511 214.993 335.042 214.993V214.993Z" fill="#1F3969"/>
<path d="M379.787 1.7666H212.731C208.827 1.7666 205.662 4.93038 205.662 8.8331V139.816C205.662 143.719 208.827 146.883 212.731 146.883H379.787C383.691 146.883 386.855 143.719 386.855 139.816V8.8331C386.855 4.93038 383.691 1.7666 379.787 1.7666Z" fill="#2D425E"/>
<path d="M386.854 20.7172H205.662C205.193 20.7172 204.744 20.5311 204.413 20.1998C204.081 19.8685 203.895 19.4191 203.895 18.9506V8.83313C203.898 6.49123 204.829 4.24599 206.486 2.59001C208.142 0.934038 210.388 0.00257185 212.731 0H379.786C382.128 0.00257185 384.374 0.934038 386.031 2.59001C387.687 4.24599 388.619 6.49123 388.621 8.83313V18.9506C388.621 19.4191 388.435 19.8685 388.104 20.1998C387.772 20.5311 387.323 20.7172 386.854 20.7172ZM207.428 17.184H385.087V8.83313C385.086 7.42794 384.527 6.08072 383.533 5.08711C382.539 4.09349 381.191 3.53465 379.786 3.53325H212.731C211.325 3.53489 209.978 4.09379 208.984 5.08735C207.99 6.08092 207.431 7.42802 207.429 8.83313L207.428 17.184Z" fill="#1F3969"/>
<path d="M212.731 1.7666H379.786C381.661 1.7666 383.459 2.5111 384.784 3.83633C386.11 5.16155 386.855 6.95895 386.855 8.83311V22.316H205.662V8.83311C205.662 6.95895 206.407 5.16155 207.733 3.83633C209.058 2.5111 210.856 1.7666 212.731 1.7666Z" fill="#D0DDF0"/>
<path d="M386.854 24.0827H205.662C205.193 24.0827 204.744 23.8965 204.413 23.5652C204.081 23.2339 203.895 22.7846 203.895 22.316V8.83313C203.898 6.49123 204.829 4.24599 206.486 2.59001C208.142 0.934039 210.388 0.00257185 212.731 0H379.786C382.128 0.00257185 384.374 0.934039 386.031 2.59001C387.687 4.24599 388.619 6.49123 388.621 8.83313V22.316C388.621 22.7846 388.435 23.2339 388.104 23.5652C387.772 23.8965 387.323 24.0827 386.854 24.0827ZM207.428 20.5494H385.087V8.83313C385.086 7.42795 384.527 6.08073 383.533 5.08711C382.539 4.09349 381.191 3.53466 379.786 3.53325H212.731C211.325 3.53489 209.978 4.09379 208.984 5.08735C207.99 6.08092 207.431 7.42802 207.429 8.83313L207.428 20.5494Z" fill="#1F3969"/>
<path d="M386.854 24.0827H205.662C205.193 24.0827 204.744 23.8965 204.413 23.5652C204.081 23.2339 203.895 22.7846 203.895 22.316V8.83313C203.898 6.49123 204.829 4.24599 206.486 2.59001C208.142 0.934039 210.388 0.00257185 212.731 0H379.786C382.128 0.00257185 384.374 0.934039 386.031 2.59001C387.687 4.24599 388.619 6.49123 388.621 8.83313V22.316C388.621 22.7846 388.435 23.2339 388.104 23.5652C387.772 23.8965 387.323 24.0827 386.854 24.0827ZM207.428 20.5494H385.087V8.83313C385.086 7.42795 384.527 6.08073 383.533 5.08711C382.539 4.09349 381.191 3.53466 379.786 3.53325H212.731C211.325 3.53489 209.978 4.09379 208.984 5.08735C207.99 6.08092 207.431 7.42802 207.429 8.83313L207.428 20.5494Z" fill="#1F3969"/>
<path d="M379.786 148.648H212.731C210.388 148.646 208.142 147.714 206.486 146.058C204.829 144.402 203.898 142.157 203.895 139.815V8.83313C203.898 6.49123 204.829 4.24599 206.486 2.59001C208.142 0.934038 210.388 0.00257185 212.731 0H379.786C382.128 0.00257185 384.374 0.934038 386.031 2.59001C387.687 4.24599 388.619 6.49123 388.621 8.83313V139.815C388.619 142.157 387.687 144.402 386.031 146.058C384.374 147.714 382.128 148.646 379.786 148.648ZM212.731 3.53325C211.325 3.53489 209.978 4.09379 208.984 5.08735C207.99 6.08092 207.431 7.42801 207.429 8.83313V139.815C207.431 141.22 207.99 142.567 208.984 143.561C209.978 144.554 211.325 145.113 212.731 145.115H379.786C381.191 145.114 382.539 144.555 383.533 143.561C384.527 142.568 385.086 141.22 385.087 139.815V8.83313C385.086 7.42794 384.527 6.08072 383.533 5.08711C382.539 4.09349 381.191 3.53465 379.786 3.53325H212.731Z" fill="#1F3969"/>
<g opacity="0.28">
<path opacity="0.28" d="M466.983 55.4243H364.477C360.573 55.4243 357.408 58.5881 357.408 62.4908V171.09C357.408 174.992 360.573 178.156 364.477 178.156H466.983C470.887 178.156 474.051 174.992 474.051 171.09V62.4908C474.051 58.5881 470.887 55.4243 466.983 55.4243Z" fill="#1F3969"/>
<path opacity="0.28" d="M466.983 179.924H364.477C362.134 179.921 359.889 178.989 358.232 177.333C356.576 175.678 355.644 173.432 355.641 171.091V62.4908C355.644 60.1489 356.575 57.9037 358.232 56.2477C359.888 54.5918 362.134 53.6603 364.477 53.6577H466.983C469.326 53.6603 471.572 54.5918 473.228 56.2477C474.884 57.9037 475.816 60.1489 475.819 62.4908V171.091C475.816 173.432 474.884 175.678 473.228 177.333C471.571 178.989 469.326 179.921 466.983 179.924V179.924ZM364.477 57.191C363.071 57.1924 361.724 57.7512 360.73 58.7448C359.736 59.7384 359.177 61.0857 359.175 62.4908V171.091C359.177 172.496 359.736 173.843 360.73 174.836C361.724 175.83 363.071 176.389 364.477 176.39H466.983C468.389 176.389 469.736 175.83 470.73 174.836C471.724 173.843 472.283 172.496 472.285 171.091V62.4908C472.283 61.0857 471.724 59.7384 470.73 58.7448C469.736 57.7512 468.389 57.1924 466.983 57.191H364.477Z" fill="#1F3969"/>
</g>
<path d="M474.051 49.2412H371.545C367.641 49.2412 364.477 52.405 364.477 56.3077V164.907C364.477 168.809 367.641 171.973 371.545 171.973H474.051C477.955 171.973 481.12 168.809 481.12 164.907V56.3077C481.12 52.405 477.955 49.2412 474.051 49.2412Z" fill="#2AA1FF"/>
<path d="M474.052 173.741H371.545C369.203 173.738 366.957 172.806 365.3 171.15C363.644 169.494 362.712 167.249 362.709 164.908V56.3077C362.712 53.9658 363.644 51.7206 365.3 50.0646C366.957 48.4086 369.202 47.4772 371.545 47.4746H474.052C476.394 47.4772 478.64 48.4086 480.296 50.0646C481.953 51.7206 482.884 53.9658 482.887 56.3077V164.908C482.884 167.249 481.952 169.494 480.296 171.15C478.64 172.806 476.394 173.738 474.052 173.741ZM371.545 51.0079C370.139 51.0093 368.792 51.5681 367.798 52.5617C366.804 53.5553 366.245 54.9026 366.244 56.3077V164.908C366.245 166.313 366.804 167.66 367.798 168.653C368.792 169.647 370.14 170.206 371.545 170.207H474.052C475.457 170.206 476.804 169.647 477.798 168.653C478.792 167.66 479.351 166.313 479.353 164.908V56.3077C479.351 54.9026 478.792 53.5553 477.799 52.5617C476.805 51.5681 475.457 51.0093 474.052 51.0079H371.545Z" fill="#1F3969"/>
<g style="mix-blend-mode:screen" opacity="0.34">
<path d="M458.799 66.8535H386.728C384.207 66.8535 382.163 68.8969 382.163 71.4176V78.3074C382.163 80.8281 384.207 82.8715 386.728 82.8715H458.799C461.32 82.8715 463.364 80.8281 463.364 78.3074V71.4176C463.364 68.8969 461.32 66.8535 458.799 66.8535Z" stroke="white" stroke-width="2" stroke-linecap="round" stroke-linejoin="round"/>
</g>
<g style="mix-blend-mode:screen" opacity="0.34">
<g style="mix-blend-mode:screen" opacity="0.34">
<path d="M427.127 92.7407H386.799C384.277 92.7407 382.233 94.7841 382.233 97.3048V104.195C382.233 106.715 384.277 108.759 386.799 108.759H427.127C429.648 108.759 431.692 106.715 431.692 104.195V97.3048C431.692 94.7841 429.648 92.7407 427.127 92.7407Z" stroke="white" stroke-width="2" stroke-linecap="round" stroke-linejoin="round"/>
</g>
<g style="mix-blend-mode:screen" opacity="0.34">
<path d="M458.869 92.7407H443.27C440.749 92.7407 438.705 94.7841 438.705 97.3048V104.195C438.705 106.715 440.749 108.759 443.27 108.759H458.869C461.391 108.759 463.435 106.715 463.435 104.195V97.3048C463.435 94.7841 461.391 92.7407 458.869 92.7407Z" stroke="white" stroke-width="2" stroke-linecap="round" stroke-linejoin="round"/>
</g>
</g>
<path d="M382.163 135.656H463.364" stroke="white" stroke-width="2" stroke-linecap="round" stroke-linejoin="round"/>
<path d="M382.163 145.188H463.364" stroke="white" stroke-width="2" stroke-linecap="round" stroke-linejoin="round"/>
<path d="M382.163 154.719H431.622" stroke="white" stroke-width="2" stroke-linecap="round" stroke-linejoin="round"/>
<path d="M223.397 15.5746C225.349 15.5746 226.931 13.9927 226.931 12.0413C226.931 10.0899 225.349 8.50806 223.397 8.50806C221.445 8.50806 219.863 10.0899 219.863 12.0413C219.863 13.9927 221.445 15.5746 223.397 15.5746Z" fill="#1F3969"/>
<path d="M235.666 15.5746C237.618 15.5746 239.2 13.9927 239.2 12.0413C239.2 10.0899 237.618 8.50806 235.666 8.50806C233.714 8.50806 232.132 10.0899 232.132 12.0413C232.132 13.9927 233.714 15.5746 235.666 15.5746Z" fill="#1F3969"/>
<path d="M247.935 15.5746C249.887 15.5746 251.469 13.9927 251.469 12.0413C251.469 10.0899 249.887 8.50806 247.935 8.50806C245.983 8.50806 244.401 10.0899 244.401 12.0413C244.401 13.9927 245.983 15.5746 247.935 15.5746Z" fill="#1F3969"/>
<path d="M309.756 38.6228H321.179" stroke="white" stroke-width="4" stroke-linecap="round" stroke-linejoin="round"/>
<path d="M251.469 38.6228H301.281" stroke="#7BFFA0" stroke-width="4" stroke-linecap="round" stroke-linejoin="round"/>
<path d="M226.931 38.6228H244.401" stroke="#9169FF" stroke-width="4" stroke-linecap="round" stroke-linejoin="round"/>
<path d="M249.702 125.681H287.746" stroke="#9169FF" stroke-width="4" stroke-linecap="round" stroke-linejoin="round"/>
<path d="M226.931 125.681H239.199" stroke="#7BFFA0" stroke-width="4" stroke-linecap="round" stroke-linejoin="round"/>
<path d="M301.281 49.5051H308.363" stroke="white" stroke-width="4" stroke-linecap="round" stroke-linejoin="round"/>
<path d="M268.705 49.5051H292.761" stroke="#9169FF" stroke-width="4" stroke-linecap="round" stroke-linejoin="round"/>
<path d="M235.666 49.5051H260.179" stroke="#FFC47D" stroke-width="4" stroke-linecap="round" stroke-linejoin="round"/>
<path d="M273.609 60.3877H294.671" stroke="white" stroke-width="4" stroke-linecap="round" stroke-linejoin="round"/>
<path d="M247.049 60.3877H266.913" stroke="#FF5757" stroke-width="4" stroke-linecap="round" stroke-linejoin="round"/>
<path d="M276.418 71.27H280.781" stroke="white" stroke-width="4" stroke-linecap="round" stroke-linejoin="round"/>
<path d="M258.906 71.27H268.705" stroke="#9169FF" stroke-width="4" stroke-linecap="round" stroke-linejoin="round"/>
<path d="M235.666 71.27H251.469" stroke="#7BFFA0" stroke-width="4" stroke-linecap="round" stroke-linejoin="round"/>
<path d="M269.596 82.1526H297.776" stroke="#FFC47D" stroke-width="4" stroke-linecap="round" stroke-linejoin="round"/>
<path d="M235.666 82.1526H260.96" stroke="#FF5757" stroke-width="4" stroke-linecap="round" stroke-linejoin="round"/>
<path d="M302.194 93.0349H317.518" stroke="#9169FF" stroke-width="4" stroke-linecap="round" stroke-linejoin="round"/>
<path d="M269.596 93.0349H294.114" stroke="#FF5757" stroke-width="4" stroke-linecap="round" stroke-linejoin="round"/>
<path d="M247.049 93.0349H260.96" stroke="#7BFFA0" stroke-width="4" stroke-linecap="round" stroke-linejoin="round"/>
<path d="M280.733 103.917H294.114" stroke="white" stroke-width="4" stroke-linecap="round" stroke-linejoin="round"/>
<path d="M247.049 103.917H271.562" stroke="#9169FF" stroke-width="4" stroke-linecap="round" stroke-linejoin="round"/>
<path d="M315.468 114.8H330.746" stroke="white" stroke-width="4" stroke-linecap="round" stroke-linejoin="round"/>
<path d="M268.705 114.8H307.2" stroke="#FFC47D" stroke-width="4" stroke-linecap="round" stroke-linejoin="round"/>
<path d="M235.666 114.8H260.179" stroke="white" stroke-width="4" stroke-linecap="round" stroke-linejoin="round"/>
<path d="M238.734 256.928H48.3648C47.8961 256.928 47.4466 256.741 47.1152 256.41C46.7838 256.079 46.5977 255.629 46.5977 255.161C46.5977 254.692 46.7838 254.243 47.1152 253.912C47.4466 253.58 47.8961 253.394 48.3648 253.394H238.734C239.203 253.394 239.653 253.58 239.984 253.912C240.315 254.243 240.502 254.692 240.502 255.161C240.502 255.629 240.315 256.079 239.984 256.41C239.653 256.741 239.203 256.928 238.734 256.928Z" fill="#1F3969"/>
<path d="M238.734 264.009H48.3648C47.8961 264.009 47.4466 263.823 47.1152 263.492C46.7838 263.16 46.5977 262.711 46.5977 262.242C46.5977 261.774 46.7838 261.325 47.1152 260.993C47.4466 260.662 47.8961 260.476 48.3648 260.476H238.734C239.203 260.476 239.653 260.662 239.984 260.993C240.315 261.325 240.502 261.774 240.502 262.242C240.502 262.711 240.315 263.16 239.984 263.492C239.653 263.823 239.203 264.009 238.734 264.009Z" fill="#1F3969"/>
<path d="M240.529 270.864H46.1931C45.9049 270.864 45.6212 270.794 45.3665 270.659C45.1118 270.525 44.894 270.329 44.7319 270.091C44.5699 269.853 44.4686 269.579 44.4368 269.293C44.405 269.006 44.4438 268.717 44.5497 268.449C46.7774 262.391 46.7774 255.739 44.5497 249.681C44.444 249.413 44.4054 249.123 44.4372 248.837C44.4691 248.551 44.5704 248.277 44.7324 248.039C44.8944 247.801 45.1122 247.606 45.3668 247.471C45.6214 247.336 45.905 247.266 46.1931 247.266H240.529C240.817 247.266 241.101 247.336 241.355 247.471C241.609 247.606 241.827 247.801 241.989 248.039C242.151 248.277 242.253 248.55 242.285 248.837C242.316 249.123 242.278 249.412 242.172 249.68C239.945 255.738 239.945 262.391 242.172 268.449C242.278 268.717 242.317 269.007 242.285 269.293C242.253 269.579 242.152 269.853 241.99 270.092C241.828 270.33 241.61 270.525 241.355 270.659C241.101 270.794 240.817 270.864 240.529 270.864ZM48.6494 267.331H238.074C236.599 261.919 236.599 256.211 238.074 250.799H48.6494C50.1232 256.211 50.1232 261.919 48.6494 267.331V267.331Z" fill="#1F3969"/>
<path d="M501.987 177.073L493.375 178.084L500.858 241.819L509.47 240.808L501.987 177.073Z" fill="#FFA364"/>
<path d="M501.986 177.073L493.375 178.084L494.136 184.567L502.748 183.556L501.986 177.073Z" fill="#2AA1FF"/>
<path d="M494.135 186.331C493.702 186.331 493.285 186.172 492.961 185.885C492.638 185.597 492.431 185.2 492.381 184.771L491.619 178.287C491.592 178.057 491.61 177.823 491.674 177.6C491.737 177.377 491.843 177.168 491.987 176.986C492.131 176.804 492.309 176.652 492.512 176.539C492.714 176.425 492.937 176.353 493.168 176.326L501.78 175.316C502.01 175.288 502.244 175.307 502.467 175.37C502.691 175.433 502.899 175.54 503.082 175.684C503.264 175.827 503.416 176.006 503.529 176.208C503.642 176.411 503.714 176.634 503.741 176.864L504.502 183.348C504.557 183.813 504.424 184.281 504.134 184.648C503.843 185.016 503.419 185.253 502.953 185.308L494.341 186.319C494.273 186.327 494.204 186.331 494.135 186.331V186.331ZM495.335 179.63L495.684 182.604L500.786 182.005L500.438 179.031L495.335 179.63Z" fill="#1F3969"/>
<path d="M500.858 243.586C500.425 243.586 500.007 243.427 499.683 243.139C499.36 242.851 499.153 242.455 499.103 242.025L491.619 178.29C491.592 178.06 491.61 177.826 491.674 177.603C491.737 177.38 491.843 177.171 491.987 176.989C492.131 176.807 492.309 176.655 492.512 176.542C492.714 176.429 492.937 176.357 493.168 176.329L501.78 175.319C502.01 175.292 502.244 175.31 502.467 175.374C502.691 175.437 502.899 175.543 503.082 175.687C503.264 175.831 503.416 176.009 503.529 176.212C503.642 176.414 503.714 176.637 503.741 176.867L511.225 240.602C511.252 240.832 511.234 241.066 511.171 241.289C511.107 241.512 511.001 241.721 510.857 241.903C510.713 242.085 510.535 242.237 510.332 242.351C510.13 242.464 509.907 242.536 509.676 242.563L501.064 243.573C500.996 243.582 500.927 243.586 500.858 243.586V243.586ZM495.335 179.634L502.404 239.859L507.506 239.261L500.438 179.035L495.335 179.634Z" fill="#1F3969"/>
<path d="M525.701 190.052L517.08 189.115L510.143 252.912L518.764 253.849L525.701 190.052Z" fill="#FF5252"/>
<path d="M518.769 255.611C518.705 255.611 518.64 255.611 518.576 255.602L509.955 254.664C509.49 254.614 509.064 254.381 508.77 254.016C508.477 253.652 508.34 253.186 508.389 252.721L515.325 188.925C515.376 188.46 515.609 188.034 515.973 187.74C516.338 187.447 516.804 187.31 517.269 187.36L525.89 188.296C526.355 188.346 526.781 188.579 527.075 188.944C527.369 189.308 527.506 189.774 527.456 190.239L520.519 254.035C520.472 254.467 520.268 254.867 519.945 255.157C519.622 255.448 519.204 255.61 518.769 255.611ZM512.093 251.342L517.2 251.898L523.755 191.614L518.648 191.059L512.093 251.342Z" fill="#1F3969"/>
<path d="M525.701 190.052L517.081 189.115L516.375 195.605L524.995 196.542L525.701 190.052Z" fill="#2D425E"/>
<path d="M525.002 198.305C524.938 198.305 524.874 198.305 524.809 198.295L516.188 197.358C515.723 197.307 515.297 197.074 515.003 196.71C514.709 196.346 514.572 195.88 514.622 195.415L515.329 188.925C515.379 188.46 515.612 188.034 515.977 187.74C516.341 187.447 516.807 187.31 517.272 187.36L525.893 188.296C526.358 188.346 526.785 188.579 527.078 188.944C527.372 189.308 527.509 189.774 527.46 190.239L526.753 196.729C526.706 197.161 526.501 197.56 526.178 197.851C525.855 198.142 525.436 198.303 525.002 198.305V198.305ZM518.326 194.036L523.433 194.591L523.758 191.614L518.651 191.059L518.326 194.036Z" fill="#1F3969"/>
<path d="M530.936 274.639H496.246L490.605 221.478H536.577L530.936 274.639Z" fill="#6567C3"/>
<g style="mix-blend-mode:overlay">
<path d="M490.605 221.478L490.708 222.454H525.734L520.196 274.639H530.936L536.577 221.478H490.605Z" fill="#6567C3"/>
</g>
<path d="M530.935 276.405H496.246C495.81 276.406 495.389 276.244 495.064 275.953C494.739 275.661 494.534 275.259 494.488 274.825L488.848 221.664C488.821 221.418 488.847 221.169 488.924 220.933C489 220.697 489.125 220.48 489.291 220.296C489.457 220.112 489.659 219.965 489.886 219.864C490.112 219.763 490.357 219.711 490.605 219.711H536.577C536.825 219.711 537.07 219.763 537.296 219.864C537.523 219.965 537.725 220.112 537.891 220.296C538.057 220.48 538.182 220.697 538.258 220.933C538.335 221.169 538.361 221.418 538.334 221.664L532.693 274.824C532.647 275.259 532.442 275.66 532.117 275.952C531.793 276.244 531.371 276.406 530.935 276.405ZM497.835 272.872H529.346L534.612 223.245H492.569L497.835 272.872Z" fill="#1F3969"/>
</svg>
