<svg width="315" height="90" viewBox="0 0 315 90" fill="none" xmlns="http://www.w3.org/2000/svg">
<rect width="315" height="90" fill="#395A8C"/>
<path d="M35.955 61.3499C34.305 61.3499 32.775 61.0349 31.365 60.4049C29.955 59.7449 28.725 58.8599 27.675 57.7499C26.655 56.6099 25.845 55.3049 25.245 53.8349C24.675 52.3649 24.39 50.7899 24.39 49.1099C24.39 47.4599 24.675 45.9149 25.245 44.4749C25.845 43.0049 26.655 41.7299 27.675 40.6499C28.695 39.5399 29.895 38.6699 31.275 38.0399C32.685 37.4099 34.2 37.0949 35.82 37.0949C37.47 37.0949 39 37.4249 40.41 38.0849C41.82 38.7149 43.035 39.5849 44.055 40.6949C45.075 41.7749 45.87 43.0499 46.44 44.5199C47.01 45.9599 47.295 47.4899 47.295 49.1099C47.295 49.2599 47.295 49.4549 47.295 49.6949C47.295 49.9049 47.28 50.0399 47.25 50.0999H26.73C26.82 51.4499 27.135 52.7099 27.675 53.8799C28.215 55.0199 28.89 56.0099 29.7 56.8499C30.54 57.6899 31.5 58.3499 32.58 58.8299C33.66 59.3099 34.815 59.5499 36.045 59.5499C36.855 59.5499 37.65 59.4449 38.43 59.2349C39.21 58.9949 39.93 58.6799 40.59 58.2899C41.28 57.8999 41.88 57.4349 42.39 56.8949C42.93 56.3249 43.35 55.7099 43.65 55.0499L45.63 55.5899C45.3 56.4299 44.805 57.2099 44.145 57.9299C43.515 58.6199 42.765 59.2199 41.895 59.7299C41.055 60.2399 40.125 60.6299 39.105 60.8999C38.085 61.1999 37.035 61.3499 35.955 61.3499ZM45.135 48.2999C45.045 46.9199 44.73 45.6599 44.19 44.5199C43.68 43.3799 43.005 42.4049 42.165 41.5949C41.355 40.7549 40.41 40.1099 39.33 39.6599C38.25 39.1799 37.095 38.9399 35.865 38.9399C34.635 38.9399 33.48 39.1799 32.4 39.6599C31.32 40.1099 30.36 40.7549 29.52 41.5949C28.71 42.4049 28.05 43.3949 27.54 44.5649C27.06 45.7049 26.775 46.9499 26.685 48.2999H45.135ZM51.1404 37.4999L58.7004 47.1749L59.0604 47.8049L59.4204 47.1749L66.9354 37.4999H69.4554L60.3654 49.2449L69.4104 60.8999H66.9354L59.4204 51.2699L59.0604 50.6849L58.7004 51.2699L51.1854 60.8999H48.7104L57.7554 49.2449L48.6654 37.4999H51.1404ZM85.1646 61.3499C83.1546 61.3499 81.3546 60.8249 79.7646 59.7749C78.2046 58.6949 76.9446 57.3899 75.9846 55.8599V70.4849H73.7346V37.4999H75.8046V42.1799C76.7646 40.6799 78.0246 39.4649 79.5846 38.5349C81.1746 37.5749 82.8696 37.0949 84.6696 37.0949C86.2896 37.0949 87.7896 37.4399 89.1696 38.1299C90.5496 38.8199 91.7346 39.7349 92.7246 40.8749C93.7146 41.9849 94.4796 43.2749 95.0196 44.7449C95.5896 46.2149 95.8746 47.7149 95.8746 49.2449C95.8746 50.8649 95.6196 52.4099 95.1096 53.8799C94.5996 55.3499 93.8646 56.6399 92.9046 57.7499C91.9746 58.8599 90.8496 59.7449 89.5296 60.4049C88.2096 61.0349 86.7546 61.3499 85.1646 61.3499ZM84.6246 59.3249C85.9746 59.3249 87.2046 59.0399 88.3146 58.4699C89.4246 57.8999 90.3696 57.1499 91.1496 56.2199C91.9296 55.2599 92.5296 54.1799 92.9496 52.9799C93.3696 51.7499 93.5796 50.5049 93.5796 49.2449C93.5796 47.8949 93.3396 46.6199 92.8596 45.4199C92.3796 44.1899 91.7046 43.1099 90.8346 42.1799C89.9946 41.2499 89.0046 40.5149 87.8646 39.9749C86.7246 39.4049 85.5096 39.1199 84.2196 39.1199C83.4096 39.1199 82.5396 39.2999 81.6096 39.6599C80.7096 39.9899 79.8546 40.4549 79.0446 41.0549C78.2346 41.6249 77.5446 42.2849 76.9746 43.0349C76.4046 43.7849 76.0746 44.5799 75.9846 45.4199V53.1149C76.3746 53.9849 76.8696 54.7949 77.4696 55.5449C78.0696 56.2949 78.7446 56.9549 79.4946 57.5249C80.2446 58.0949 81.0546 58.5449 81.9246 58.8749C82.7946 59.1749 83.6946 59.3249 84.6246 59.3249ZM111.233 61.3499C109.583 61.3499 108.053 61.0349 106.643 60.4049C105.233 59.7449 104.003 58.8599 102.953 57.7499C101.933 56.6099 101.123 55.3049 100.523 53.8349C99.9533 52.3649 99.6683 50.7899 99.6683 49.1099C99.6683 47.4599 99.9533 45.9149 100.523 44.4749C101.123 43.0049 101.933 41.7299 102.953 40.6499C103.973 39.5399 105.173 38.6699 106.553 38.0399C107.963 37.4099 109.478 37.0949 111.098 37.0949C112.748 37.0949 114.278 37.4249 115.688 38.0849C117.098 38.7149 118.313 39.5849 119.333 40.6949C120.353 41.7749 121.148 43.0499 121.718 44.5199C122.288 45.9599 122.573 47.4899 122.573 49.1099C122.573 49.2599 122.573 49.4549 122.573 49.6949C122.573 49.9049 122.558 50.0399 122.528 50.0999H102.008C102.098 51.4499 102.413 52.7099 102.953 53.8799C103.493 55.0199 104.168 56.0099 104.978 56.8499C105.818 57.6899 106.778 58.3499 107.858 58.8299C108.938 59.3099 110.093 59.5499 111.323 59.5499C112.133 59.5499 112.928 59.4449 113.708 59.2349C114.488 58.9949 115.208 58.6799 115.868 58.2899C116.558 57.8999 117.158 57.4349 117.668 56.8949C118.208 56.3249 118.628 55.7099 118.928 55.0499L120.908 55.5899C120.578 56.4299 120.083 57.2099 119.423 57.9299C118.793 58.6199 118.043 59.2199 117.173 59.7299C116.333 60.2399 115.403 60.6299 114.383 60.8999C113.363 61.1999 112.313 61.3499 111.233 61.3499ZM120.413 48.2999C120.323 46.9199 120.008 45.6599 119.468 44.5199C118.958 43.3799 118.283 42.4049 117.443 41.5949C116.633 40.7549 115.688 40.1099 114.608 39.6599C113.528 39.1799 112.373 38.9399 111.143 38.9399C109.913 38.9399 108.758 39.1799 107.678 39.6599C106.598 40.1099 105.638 40.7549 104.798 41.5949C103.988 42.4049 103.328 43.3949 102.818 44.5649C102.338 45.7049 102.053 46.9499 101.963 48.2999H120.413ZM138.594 39.5249C136.494 39.5849 134.649 40.2149 133.059 41.4149C131.499 42.5849 130.404 44.2049 129.774 46.2749V60.8999H127.524V37.4999H129.684V43.2599C130.494 41.6099 131.559 40.2749 132.879 39.2549C134.229 38.2049 135.669 37.6049 137.199 37.4549C137.499 37.4249 137.769 37.4099 138.009 37.4099C138.249 37.4099 138.444 37.4099 138.594 37.4099V39.5249ZM142.861 60.8999V37.4999H145.111V60.8999H142.861ZM142.861 32.1899V28.0499H145.111V32.1899H142.861ZM186.557 60.8999H184.307V47.8499C184.307 44.8799 183.842 42.6899 182.912 41.2799C182.012 39.8699 180.617 39.1649 178.727 39.1649C177.767 39.1649 176.852 39.3449 175.982 39.7049C175.112 40.0649 174.317 40.5749 173.597 41.2349C172.877 41.8649 172.247 42.6299 171.707 43.5299C171.197 44.3999 170.792 45.3749 170.492 46.4549V60.8999H168.242V47.8499C168.242 44.8499 167.792 42.6599 166.892 41.2799C165.992 39.8699 164.597 39.1649 162.707 39.1649C161.747 39.1649 160.832 39.3449 159.962 39.7049C159.122 40.0349 158.342 40.5299 157.622 41.1899C156.902 41.8199 156.257 42.5849 155.687 43.4849C155.147 44.3549 154.727 45.3299 154.427 46.4099V60.8999H152.177V37.4999H154.292V43.0799C155.252 41.1899 156.512 39.7199 158.072 38.6699C159.632 37.6199 161.357 37.0949 163.247 37.0949C165.227 37.0949 166.832 37.6799 168.062 38.8499C169.292 40.0199 170.027 41.5499 170.267 43.4399C172.487 39.2099 175.547 37.0949 179.447 37.0949C181.997 37.0949 183.812 38.0099 184.892 39.8399C186.002 41.6399 186.557 44.1749 186.557 47.4449V60.8999ZM203.299 61.3499C201.649 61.3499 200.119 61.0349 198.709 60.4049C197.299 59.7449 196.069 58.8599 195.019 57.7499C193.999 56.6099 193.189 55.3049 192.589 53.8349C192.019 52.3649 191.734 50.7899 191.734 49.1099C191.734 47.4599 192.019 45.9149 192.589 44.4749C193.189 43.0049 193.999 41.7299 195.019 40.6499C196.039 39.5399 197.239 38.6699 198.619 38.0399C200.029 37.4099 201.544 37.0949 203.164 37.0949C204.814 37.0949 206.344 37.4249 207.754 38.0849C209.164 38.7149 210.379 39.5849 211.399 40.6949C212.419 41.7749 213.214 43.0499 213.784 44.5199C214.354 45.9599 214.639 47.4899 214.639 49.1099C214.639 49.2599 214.639 49.4549 214.639 49.6949C214.639 49.9049 214.624 50.0399 214.594 50.0999H194.074C194.164 51.4499 194.479 52.7099 195.019 53.8799C195.559 55.0199 196.234 56.0099 197.044 56.8499C197.884 57.6899 198.844 58.3499 199.924 58.8299C201.004 59.3099 202.159 59.5499 203.389 59.5499C204.199 59.5499 204.994 59.4449 205.774 59.2349C206.554 58.9949 207.274 58.6799 207.934 58.2899C208.624 57.8999 209.224 57.4349 209.734 56.8949C210.274 56.3249 210.694 55.7099 210.994 55.0499L212.974 55.5899C212.644 56.4299 212.149 57.2099 211.489 57.9299C210.859 58.6199 210.109 59.2199 209.239 59.7299C208.399 60.2399 207.469 60.6299 206.449 60.8999C205.429 61.1999 204.379 61.3499 203.299 61.3499ZM212.479 48.2999C212.389 46.9199 212.074 45.6599 211.534 44.5199C211.024 43.3799 210.349 42.4049 209.509 41.5949C208.699 40.7549 207.754 40.1099 206.674 39.6599C205.594 39.1799 204.439 38.9399 203.209 38.9399C201.979 38.9399 200.824 39.1799 199.744 39.6599C198.664 40.1099 197.704 40.7549 196.864 41.5949C196.054 42.4049 195.394 43.3949 194.884 44.5649C194.404 45.7049 194.119 46.9499 194.029 48.2999H212.479ZM238.714 60.8999H236.464V47.8499C236.464 44.8199 236.029 42.6149 235.159 41.2349C234.319 39.8549 232.969 39.1649 231.109 39.1649C230.119 39.1649 229.129 39.3449 228.139 39.7049C227.179 40.0649 226.279 40.5749 225.439 41.2349C224.599 41.8949 223.864 42.6749 223.234 43.5749C222.604 44.4449 222.139 45.3899 221.839 46.4099V60.8999H219.589V37.4999H221.704V43.0799C222.184 42.1799 222.769 41.3699 223.459 40.6499C224.179 39.8999 224.974 39.2699 225.844 38.7599C226.744 38.2199 227.689 37.8149 228.679 37.5449C229.669 37.2449 230.689 37.0949 231.739 37.0949C234.289 37.0949 236.089 37.9949 237.139 39.7949C238.189 41.5649 238.714 44.1149 238.714 47.4449V60.8999ZM255.737 59.7749C255.617 59.8349 255.407 59.9549 255.107 60.1349C254.837 60.2849 254.477 60.4349 254.027 60.5849C253.607 60.7349 253.127 60.8699 252.587 60.9899C252.047 61.1099 251.462 61.1699 250.832 61.1699C250.202 61.1699 249.602 61.0799 249.032 60.8999C248.492 60.7199 248.012 60.4499 247.592 60.0899C247.172 59.7299 246.842 59.2949 246.602 58.7849C246.362 58.2749 246.242 57.6749 246.242 56.9849V39.3449H242.957V37.4999H246.242V29.4899H248.492V37.4999H253.937V39.3449H248.492V56.4449C248.492 57.3149 248.792 57.9749 249.392 58.4249C249.992 58.8449 250.667 59.0549 251.417 59.0549C252.347 59.0549 253.142 58.9049 253.802 58.6049C254.492 58.2749 254.912 58.0649 255.062 57.9749L255.737 59.7749ZM265.471 61.3499C264.391 61.3499 263.386 61.1699 262.456 60.8099C261.526 60.4199 260.701 59.9099 259.981 59.2799C259.291 58.6199 258.751 57.8549 258.361 56.9849C257.971 56.0849 257.776 55.1249 257.776 54.1049C257.776 53.0849 258.016 52.1549 258.496 51.3149C258.976 50.4749 259.636 49.7549 260.476 49.1549C261.346 48.5249 262.381 48.0449 263.581 47.7149C264.781 47.3549 266.101 47.1749 267.541 47.1749C268.801 47.1749 270.061 47.2949 271.321 47.5349C272.611 47.7449 273.766 48.0449 274.786 48.4349V46.1399C274.786 43.9199 274.156 42.1649 272.896 40.8749C271.636 39.5549 269.926 38.8949 267.766 38.8949C266.626 38.8949 265.411 39.1349 264.121 39.6149C262.861 40.0949 261.571 40.7849 260.251 41.6849L259.396 40.1549C262.396 38.1149 265.246 37.0949 267.946 37.0949C270.766 37.0949 272.986 37.9199 274.606 39.5699C276.226 41.1899 277.036 43.4399 277.036 46.3199V57.7499C277.036 58.4999 277.366 58.8749 278.026 58.8749V60.8999C277.876 60.9299 277.711 60.9449 277.531 60.9449C277.381 60.9749 277.246 60.9899 277.126 60.9899C276.526 60.9899 276.046 60.7949 275.686 60.4049C275.326 59.9849 275.116 59.4899 275.056 58.9199V56.9849C273.976 58.3949 272.596 59.4749 270.916 60.2249C269.236 60.9749 267.421 61.3499 265.471 61.3499ZM265.921 59.5499C267.661 59.5499 269.251 59.2199 270.691 58.5599C272.161 57.8999 273.286 57.0299 274.066 55.9499C274.546 55.3199 274.786 54.7199 274.786 54.1499V50.0099C273.706 49.5899 272.581 49.2749 271.411 49.0649C270.241 48.8549 269.026 48.7499 267.766 48.7499C266.596 48.7499 265.531 48.8849 264.571 49.1549C263.611 49.3949 262.786 49.7399 262.096 50.1899C261.406 50.6399 260.866 51.1949 260.476 51.8549C260.116 52.4849 259.936 53.1899 259.936 53.9699C259.936 54.7499 260.086 55.4849 260.386 56.1749C260.686 56.8649 261.106 57.4649 261.646 57.9749C262.186 58.4549 262.816 58.8449 263.536 59.1449C264.286 59.4149 265.081 59.5499 265.921 59.5499ZM284.061 28.0499H286.356V56.2649C286.356 57.1349 286.596 57.8249 287.076 58.3349C287.586 58.8449 288.276 59.0999 289.146 59.0999C289.476 59.0999 289.866 59.0699 290.316 59.0099C290.796 58.9199 291.231 58.7999 291.621 58.6499L292.071 60.4499C291.561 60.6599 290.931 60.8249 290.181 60.9449C289.431 61.0949 288.786 61.1699 288.246 61.1699C286.986 61.1699 285.966 60.7949 285.186 60.0449C284.436 59.2649 284.061 58.2299 284.061 56.9399V28.0499Z" fill="white"/>
<rect x="139.05" y="27.45" width="9.9" height="6.3" fill="#395A8C"/>
<circle cx="144" cy="31.05" r="1.8" fill="white"/>
</svg>
