<svg width="700" height="200" viewBox="0 0 700 200" fill="none" xmlns="http://www.w3.org/2000/svg">
<rect width="700" height="200" fill="#1F3C68"/>
<path d="M79.9 115C76.2333 115 72.8333 114.3 69.7 112.9C66.5667 111.433 63.8333 109.467 61.5 107C59.2333 104.467 57.4333 101.567 56.1 98.3C54.8333 95.0333 54.2 91.5333 54.2 87.8C54.2 84.1333 54.8333 80.7 56.1 77.5C57.4333 74.2333 59.2333 71.4 61.5 69C63.7667 66.5333 66.4333 64.6 69.5 63.2C72.6333 61.8 76 61.1 79.6 61.1C83.2667 61.1 86.6667 61.8333 89.8 63.3C92.9333 64.7 95.6333 66.6333 97.9 69.1C100.167 71.5 101.933 74.3333 103.2 77.6C104.467 80.8 105.1 84.2 105.1 87.8C105.1 88.1333 105.1 88.5667 105.1 89.1C105.1 89.5667 105.067 89.8667 105 90H59.4C59.6 93 60.3 95.8 61.5 98.4C62.7 100.933 64.2 103.133 66 105C67.8667 106.867 70 108.333 72.4 109.4C74.8 110.467 77.3667 111 80.1 111C81.9 111 83.6667 110.767 85.4 110.3C87.1333 109.767 88.7333 109.067 90.2 108.2C91.7333 107.333 93.0667 106.3 94.2 105.1C95.4 103.833 96.3333 102.467 97 101L101.4 102.2C100.667 104.067 99.5667 105.8 98.1 107.4C96.7 108.933 95.0333 110.267 93.1 111.4C91.2333 112.533 89.1667 113.4 86.9 114C84.6333 114.667 82.3 115 79.9 115ZM100.3 86C100.1 82.9333 99.4 80.1333 98.2 77.6C97.0667 75.0667 95.5667 72.9 93.7 71.1C91.9 69.2333 89.8 67.8 87.4 66.8C85 65.7333 82.4333 65.2 79.7 65.2C76.9667 65.2 74.4 65.7333 72 66.8C69.6 67.8 67.4667 69.2333 65.6 71.1C63.8 72.9 62.3333 75.1 61.2 77.7C60.1333 80.2333 59.5 83 59.3 86H100.3ZM113.645 62L130.445 83.5L131.245 84.9L132.045 83.5L148.745 62H154.345L134.145 88.1L154.245 114H148.745L132.045 92.6L131.245 91.3L130.445 92.6L113.745 114H108.245L128.345 88.1L108.145 62H113.645ZM189.255 115C184.788 115 180.788 113.833 177.255 111.5C173.788 109.1 170.988 106.2 168.855 102.8V135.3H163.855V62H168.455V72.4C170.588 69.0667 173.388 66.3667 176.855 64.3C180.388 62.1667 184.155 61.1 188.155 61.1C191.755 61.1 195.088 61.8667 198.155 63.4C201.221 64.9333 203.855 66.9667 206.055 69.5C208.255 71.9667 209.955 74.8333 211.155 78.1C212.421 81.3667 213.055 84.7 213.055 88.1C213.055 91.7 212.488 95.1333 211.355 98.4C210.221 101.667 208.588 104.533 206.455 107C204.388 109.467 201.888 111.433 198.955 112.9C196.021 114.3 192.788 115 189.255 115ZM188.055 110.5C191.055 110.5 193.788 109.867 196.255 108.6C198.721 107.333 200.821 105.667 202.555 103.6C204.288 101.467 205.621 99.0667 206.555 96.4C207.488 93.6667 207.955 90.9 207.955 88.1C207.955 85.1 207.421 82.2667 206.355 79.6C205.288 76.8667 203.788 74.4667 201.855 72.4C199.988 70.3333 197.788 68.7 195.255 67.5C192.721 66.2333 190.021 65.6 187.155 65.6C185.355 65.6 183.421 66 181.355 66.8C179.355 67.5333 177.455 68.5667 175.655 69.9C173.855 71.1667 172.321 72.6333 171.055 74.3C169.788 75.9667 169.055 77.7333 168.855 79.6V96.7C169.721 98.6333 170.821 100.433 172.155 102.1C173.488 103.767 174.988 105.233 176.655 106.5C178.321 107.767 180.121 108.767 182.055 109.5C183.988 110.167 185.988 110.5 188.055 110.5ZM247.185 115C243.518 115 240.118 114.3 236.985 112.9C233.852 111.433 231.118 109.467 228.785 107C226.518 104.467 224.718 101.567 223.385 98.3C222.118 95.0333 221.485 91.5333 221.485 87.8C221.485 84.1333 222.118 80.7 223.385 77.5C224.718 74.2333 226.518 71.4 228.785 69C231.052 66.5333 233.718 64.6 236.785 63.2C239.918 61.8 243.285 61.1 246.885 61.1C250.552 61.1 253.952 61.8333 257.085 63.3C260.218 64.7 262.918 66.6333 265.185 69.1C267.452 71.5 269.218 74.3333 270.485 77.6C271.752 80.8 272.385 84.2 272.385 87.8C272.385 88.1333 272.385 88.5667 272.385 89.1C272.385 89.5667 272.352 89.8667 272.285 90H226.685C226.885 93 227.585 95.8 228.785 98.4C229.985 100.933 231.485 103.133 233.285 105C235.152 106.867 237.285 108.333 239.685 109.4C242.085 110.467 244.652 111 247.385 111C249.185 111 250.952 110.767 252.685 110.3C254.418 109.767 256.018 109.067 257.485 108.2C259.018 107.333 260.352 106.3 261.485 105.1C262.685 103.833 263.618 102.467 264.285 101L268.685 102.2C267.952 104.067 266.852 105.8 265.385 107.4C263.985 108.933 262.318 110.267 260.385 111.4C258.518 112.533 256.452 113.4 254.185 114C251.918 114.667 249.585 115 247.185 115ZM267.585 86C267.385 82.9333 266.685 80.1333 265.485 77.6C264.352 75.0667 262.852 72.9 260.985 71.1C259.185 69.2333 257.085 67.8 254.685 66.8C252.285 65.7333 249.718 65.2 246.985 65.2C244.252 65.2 241.685 65.7333 239.285 66.8C236.885 67.8 234.752 69.2333 232.885 71.1C231.085 72.9 229.618 75.1 228.485 77.7C227.418 80.2333 226.785 83 226.585 86H267.585ZM307.986 66.5C303.319 66.6333 299.219 68.0333 295.686 70.7C292.219 73.3 289.786 76.9 288.386 81.5V114H283.386V62H288.186V74.8C289.986 71.1333 292.353 68.1667 295.286 65.9C298.286 63.5667 301.486 62.2333 304.886 61.9C305.553 61.8333 306.153 61.8 306.686 61.8C307.219 61.8 307.653 61.8 307.986 61.8V66.5ZM317.468 114V62H322.468V114H317.468ZM317.468 50.2V41H322.468V50.2H317.468ZM414.571 114H409.571V85C409.571 78.4 408.538 73.5333 406.471 70.4C404.471 67.2667 401.371 65.7 397.171 65.7C395.038 65.7 393.004 66.1 391.071 66.9C389.138 67.7 387.371 68.8333 385.771 70.3C384.171 71.7 382.771 73.4 381.571 75.4C380.438 77.3333 379.538 79.5 378.871 81.9V114H373.871V85C373.871 78.3333 372.871 73.4667 370.871 70.4C368.871 67.2667 365.771 65.7 361.571 65.7C359.438 65.7 357.404 66.1 355.471 66.9C353.604 67.6333 351.871 68.7333 350.271 70.2C348.671 71.6 347.238 73.3 345.971 75.3C344.771 77.2333 343.838 79.4 343.171 81.8V114H338.171V62H342.871V74.4C345.004 70.2 347.804 66.9333 351.271 64.6C354.738 62.2667 358.571 61.1 362.771 61.1C367.171 61.1 370.738 62.4 373.471 65C376.204 67.6 377.838 71 378.371 75.2C383.304 65.8 390.104 61.1 398.771 61.1C404.438 61.1 408.471 63.1333 410.871 67.2C413.338 71.2 414.571 76.8333 414.571 84.1V114ZM451.775 115C448.108 115 444.708 114.3 441.575 112.9C438.442 111.433 435.708 109.467 433.375 107C431.108 104.467 429.308 101.567 427.975 98.3C426.708 95.0333 426.075 91.5333 426.075 87.8C426.075 84.1333 426.708 80.7 427.975 77.5C429.308 74.2333 431.108 71.4 433.375 69C435.642 66.5333 438.308 64.6 441.375 63.2C444.508 61.8 447.875 61.1 451.475 61.1C455.142 61.1 458.542 61.8333 461.675 63.3C464.808 64.7 467.508 66.6333 469.775 69.1C472.042 71.5 473.808 74.3333 475.075 77.6C476.342 80.8 476.975 84.2 476.975 87.8C476.975 88.1333 476.975 88.5667 476.975 89.1C476.975 89.5667 476.942 89.8667 476.875 90H431.275C431.475 93 432.175 95.8 433.375 98.4C434.575 100.933 436.075 103.133 437.875 105C439.742 106.867 441.875 108.333 444.275 109.4C446.675 110.467 449.242 111 451.975 111C453.775 111 455.542 110.767 457.275 110.3C459.008 109.767 460.608 109.067 462.075 108.2C463.608 107.333 464.942 106.3 466.075 105.1C467.275 103.833 468.208 102.467 468.875 101L473.275 102.2C472.542 104.067 471.442 105.8 469.975 107.4C468.575 108.933 466.908 110.267 464.975 111.4C463.108 112.533 461.042 113.4 458.775 114C456.508 114.667 454.175 115 451.775 115ZM472.175 86C471.975 82.9333 471.275 80.1333 470.075 77.6C468.942 75.0667 467.442 72.9 465.575 71.1C463.775 69.2333 461.675 67.8 459.275 66.8C456.875 65.7333 454.308 65.2 451.575 65.2C448.842 65.2 446.275 65.7333 443.875 66.8C441.475 67.8 439.342 69.2333 437.475 71.1C435.675 72.9 434.208 75.1 433.075 77.7C432.008 80.2333 431.375 83 431.175 86H472.175ZM530.476 114H525.476V85C525.476 78.2667 524.509 73.3667 522.576 70.3C520.709 67.2333 517.709 65.7 513.576 65.7C511.376 65.7 509.176 66.1 506.976 66.9C504.842 67.7 502.842 68.8333 500.976 70.3C499.109 71.7667 497.476 73.5 496.076 75.5C494.676 77.4333 493.642 79.5333 492.976 81.8V114H487.976V62H492.676V74.4C493.742 72.4 495.042 70.6 496.576 69C498.176 67.3333 499.942 65.9333 501.876 64.8C503.876 63.6 505.976 62.7 508.176 62.1C510.376 61.4333 512.642 61.1 514.976 61.1C520.642 61.1 524.642 63.1 526.976 67.1C529.309 71.0333 530.476 76.7 530.476 84.1V114ZM568.305 111.5C568.038 111.633 567.571 111.9 566.905 112.3C566.305 112.633 565.505 112.967 564.505 113.3C563.571 113.633 562.505 113.933 561.305 114.2C560.105 114.467 558.805 114.6 557.405 114.6C556.005 114.6 554.671 114.4 553.405 114C552.205 113.6 551.138 113 550.205 112.2C549.271 111.4 548.538 110.433 548.005 109.3C547.471 108.167 547.205 106.833 547.205 105.3V66.1H539.905V62H547.205V44.2H552.205V62H564.305V66.1H552.205V104.1C552.205 106.033 552.871 107.5 554.205 108.5C555.538 109.433 557.038 109.9 558.705 109.9C560.771 109.9 562.538 109.567 564.005 108.9C565.538 108.167 566.471 107.7 566.805 107.5L568.305 111.5ZM589.936 115C587.536 115 585.303 114.6 583.236 113.8C581.169 112.933 579.336 111.8 577.736 110.4C576.203 108.933 575.003 107.233 574.136 105.3C573.269 103.3 572.836 101.167 572.836 98.9C572.836 96.6333 573.369 94.5667 574.436 92.7C575.503 90.8333 576.969 89.2333 578.836 87.9C580.769 86.5 583.069 85.4333 585.736 84.7C588.403 83.9 591.336 83.5 594.536 83.5C597.336 83.5 600.136 83.7667 602.936 84.3C605.803 84.7667 608.369 85.4333 610.636 86.3V81.2C610.636 76.2667 609.236 72.3667 606.436 69.5C603.636 66.5667 599.836 65.1 595.036 65.1C592.503 65.1 589.803 65.6333 586.936 66.7C584.136 67.7667 581.269 69.3 578.336 71.3L576.436 67.9C583.103 63.3667 589.436 61.1 595.436 61.1C601.703 61.1 606.636 62.9333 610.236 66.6C613.836 70.2 615.636 75.2 615.636 81.6V107C615.636 108.667 616.369 109.5 617.836 109.5V114C617.503 114.067 617.136 114.1 616.736 114.1C616.403 114.167 616.103 114.2 615.836 114.2C614.503 114.2 613.436 113.767 612.636 112.9C611.836 111.967 611.369 110.867 611.236 109.6V105.3C608.836 108.433 605.769 110.833 602.036 112.5C598.303 114.167 594.269 115 589.936 115ZM590.936 111C594.803 111 598.336 110.267 601.536 108.8C604.803 107.333 607.303 105.4 609.036 103C610.103 101.6 610.636 100.267 610.636 99V89.8C608.236 88.8667 605.736 88.1667 603.136 87.7C600.536 87.2333 597.836 87 595.036 87C592.436 87 590.069 87.3 587.936 87.9C585.803 88.4333 583.969 89.2 582.436 90.2C580.903 91.2 579.703 92.4333 578.836 93.9C578.036 95.3 577.636 96.8667 577.636 98.6C577.636 100.333 577.969 101.967 578.636 103.5C579.303 105.033 580.236 106.367 581.436 107.5C582.636 108.567 584.036 109.433 585.636 110.1C587.303 110.7 589.069 111 590.936 111ZM631.247 41H636.347V103.7C636.347 105.633 636.88 107.167 637.947 108.3C639.08 109.433 640.614 110 642.547 110C643.28 110 644.147 109.933 645.147 109.8C646.214 109.6 647.18 109.333 648.047 109L649.047 113C647.914 113.467 646.514 113.833 644.847 114.1C643.18 114.433 641.747 114.6 640.547 114.6C637.747 114.6 635.48 113.767 633.747 112.1C632.08 110.367 631.247 108.067 631.247 105.2V41Z" fill="white"/>
<rect x="309" y="39" width="22" height="14" fill="#1F3C68"/>
<circle cx="320" cy="47" r="4" fill="white"/>
<path d="M65.036 149.902C64.892 149.734 64.7 149.572 64.46 149.416C64.22 149.26 63.95 149.122 63.65 149.002C63.35 148.87 63.02 148.768 62.66 148.696C62.312 148.612 61.946 148.57 61.562 148.57C60.566 148.57 59.834 148.756 59.366 149.128C58.91 149.5 58.682 150.01 58.682 150.658C58.682 151.006 58.748 151.294 58.88 151.522C59.012 151.75 59.216 151.948 59.492 152.116C59.78 152.272 60.134 152.41 60.554 152.53C60.974 152.65 61.472 152.776 62.048 152.908C62.708 153.052 63.302 153.22 63.83 153.412C64.37 153.592 64.826 153.82 65.198 154.096C65.582 154.372 65.87 154.708 66.062 155.104C66.266 155.5 66.368 155.986 66.368 156.562C66.368 157.174 66.248 157.708 66.008 158.164C65.768 158.608 65.438 158.98 65.018 159.28C64.61 159.568 64.124 159.784 63.56 159.928C62.996 160.06 62.384 160.126 61.724 160.126C60.74 160.126 59.804 159.976 58.916 159.676C58.04 159.364 57.242 158.914 56.522 158.326L57.296 156.958C57.488 157.162 57.734 157.366 58.034 157.57C58.346 157.774 58.694 157.96 59.078 158.128C59.474 158.284 59.894 158.416 60.338 158.524C60.794 158.62 61.268 158.668 61.76 158.668C62.672 158.668 63.38 158.506 63.884 158.182C64.388 157.858 64.64 157.372 64.64 156.724C64.64 156.364 64.556 156.064 64.388 155.824C64.232 155.572 63.998 155.356 63.686 155.176C63.374 154.996 62.984 154.84 62.516 154.708C62.06 154.564 61.538 154.42 60.95 154.276C60.302 154.12 59.732 153.952 59.24 153.772C58.748 153.592 58.334 153.376 57.998 153.124C57.674 152.872 57.428 152.566 57.26 152.206C57.092 151.846 57.008 151.414 57.008 150.91C57.008 150.298 57.122 149.758 57.35 149.29C57.578 148.822 57.896 148.426 58.304 148.102C58.712 147.778 59.198 147.538 59.762 147.382C60.326 147.214 60.938 147.13 61.598 147.13C62.462 147.13 63.242 147.262 63.938 147.526C64.634 147.79 65.252 148.144 65.792 148.588L65.036 149.902ZM84.4827 160.09C83.5827 160.09 82.7607 159.91 82.0167 159.55C81.2847 159.178 80.6547 158.692 80.1267 158.092C79.5987 157.48 79.1907 156.784 78.9027 156.004C78.6147 155.224 78.4707 154.426 78.4707 153.61C78.4707 152.758 78.6207 151.942 78.9207 151.162C79.2327 150.382 79.6587 149.692 80.1987 149.092C80.7387 148.492 81.3747 148.018 82.1067 147.67C82.8507 147.31 83.6547 147.13 84.5187 147.13C85.4187 147.13 86.2347 147.322 86.9667 147.706C87.6987 148.078 88.3287 148.57 88.8568 149.182C89.3847 149.794 89.7927 150.49 90.0807 151.27C90.3687 152.038 90.5127 152.824 90.5127 153.628C90.5127 154.48 90.3567 155.296 90.0447 156.076C89.7447 156.856 89.3247 157.546 88.7848 158.146C88.2567 158.734 87.6207 159.208 86.8767 159.568C86.1447 159.916 85.3467 160.09 84.4827 160.09ZM80.1087 153.61C80.1087 154.258 80.2107 154.888 80.4147 155.5C80.6307 156.1 80.9307 156.634 81.3147 157.102C81.6987 157.57 82.1607 157.942 82.7007 158.218C83.2407 158.494 83.8407 158.632 84.5007 158.632C85.1847 158.632 85.7967 158.488 86.3367 158.2C86.8767 157.9 87.3327 157.516 87.7048 157.048C88.0888 156.568 88.3767 156.028 88.5687 155.428C88.7727 154.828 88.8748 154.222 88.8748 153.61C88.8748 152.962 88.7667 152.338 88.5507 151.738C88.3467 151.126 88.0467 150.592 87.6507 150.136C87.2667 149.668 86.8047 149.296 86.2647 149.02C85.7367 148.744 85.1487 148.606 84.5007 148.606C83.8167 148.606 83.2047 148.75 82.6647 149.038C82.1247 149.326 81.6627 149.704 81.2787 150.172C80.9067 150.64 80.6187 151.174 80.4147 151.774C80.2107 152.374 80.1087 152.986 80.1087 153.61ZM103.564 160V147.22H112.006V148.66H105.184V152.926H110.926V154.276H105.184V160H103.564ZM134.074 148.66H129.664V160H128.044V148.66H123.634V147.22H134.074V148.66ZM151.394 147.292H152.924L154.616 151.738L156.326 147.292H157.856L155.642 152.854L157.838 158.128L162.158 147.22H163.922L158.576 160H157.172L154.634 153.97L152.078 160H150.674L145.346 147.22H147.092L151.43 158.128L153.608 152.854L151.394 147.292ZM179.227 147.22H180.595L185.815 160H184.087L182.575 156.256H177.211L175.717 160H173.989L179.227 147.22ZM182.215 154.996L179.911 149.092L177.535 154.996H182.215ZM198.32 160V147.22H203.792C204.356 147.22 204.872 147.34 205.34 147.58C205.82 147.808 206.228 148.12 206.564 148.516C206.912 148.9 207.182 149.338 207.374 149.83C207.566 150.31 207.662 150.802 207.662 151.306C207.662 151.75 207.596 152.182 207.464 152.602C207.344 153.01 207.164 153.382 206.924 153.718C206.696 154.054 206.414 154.342 206.078 154.582C205.754 154.822 205.388 154.996 204.98 155.104L208.076 160H206.24L203.324 155.41H199.94V160H198.32ZM199.94 153.97H203.81C204.146 153.97 204.446 153.898 204.71 153.754C204.986 153.61 205.22 153.418 205.412 153.178C205.604 152.926 205.754 152.638 205.862 152.314C205.97 151.99 206.024 151.654 206.024 151.306C206.024 150.946 205.958 150.61 205.826 150.298C205.706 149.974 205.538 149.692 205.322 149.452C205.118 149.2 204.872 149.008 204.584 148.876C204.308 148.732 204.014 148.66 203.702 148.66H199.94V153.97ZM229.626 158.56V160H220.95V147.22H229.464V148.66H222.57V152.8H228.564V154.15H222.57V158.56H229.626ZM258.001 160V147.22H262.429C263.449 147.22 264.343 147.388 265.111 147.724C265.891 148.06 266.539 148.516 267.055 149.092C267.571 149.668 267.955 150.346 268.207 151.126C268.471 151.894 268.603 152.716 268.603 153.592C268.603 154.564 268.459 155.446 268.171 156.238C267.883 157.018 267.469 157.69 266.929 158.254C266.389 158.806 265.735 159.238 264.967 159.55C264.211 159.85 263.365 160 262.429 160H258.001ZM266.965 153.592C266.965 152.872 266.863 152.212 266.659 151.612C266.467 151 266.173 150.478 265.777 150.046C265.393 149.614 264.919 149.278 264.355 149.038C263.791 148.786 263.149 148.66 262.429 148.66H259.621V158.56H262.429C263.161 158.56 263.809 158.434 264.373 158.182C264.949 157.93 265.423 157.582 265.795 157.138C266.179 156.694 266.467 156.172 266.659 155.572C266.863 154.96 266.965 154.3 266.965 153.592ZM290.362 158.56V160H281.686V147.22H290.2V148.66H283.306V152.8H289.3V154.15H283.306V158.56H290.362ZM303.745 147.22L307.975 157.966L312.187 147.22H313.897L308.677 160H307.273L302.035 147.22H303.745ZM335.095 158.56V160H326.419V147.22H334.933V148.66H328.039V152.8H334.033V154.15H328.039V158.56H335.095ZM348.117 160V147.22H349.737V158.56H356.865V160H348.117ZM374.209 160.09C373.309 160.09 372.487 159.91 371.743 159.55C371.011 159.178 370.381 158.692 369.853 158.092C369.325 157.48 368.917 156.784 368.629 156.004C368.341 155.224 368.197 154.426 368.197 153.61C368.197 152.758 368.347 151.942 368.647 151.162C368.959 150.382 369.385 149.692 369.925 149.092C370.465 148.492 371.101 148.018 371.833 147.67C372.577 147.31 373.381 147.13 374.245 147.13C375.145 147.13 375.961 147.322 376.693 147.706C377.425 148.078 378.055 148.57 378.583 149.182C379.111 149.794 379.519 150.49 379.807 151.27C380.095 152.038 380.239 152.824 380.239 153.628C380.239 154.48 380.083 155.296 379.771 156.076C379.471 156.856 379.051 157.546 378.511 158.146C377.983 158.734 377.347 159.208 376.603 159.568C375.871 159.916 375.073 160.09 374.209 160.09ZM369.835 153.61C369.835 154.258 369.937 154.888 370.141 155.5C370.357 156.1 370.657 156.634 371.041 157.102C371.425 157.57 371.887 157.942 372.427 158.218C372.967 158.494 373.567 158.632 374.227 158.632C374.911 158.632 375.523 158.488 376.063 158.2C376.603 157.9 377.059 157.516 377.431 157.048C377.815 156.568 378.103 156.028 378.295 155.428C378.499 154.828 378.601 154.222 378.601 153.61C378.601 152.962 378.493 152.338 378.277 151.738C378.073 151.126 377.773 150.592 377.377 150.136C376.993 149.668 376.531 149.296 375.991 149.02C375.463 148.744 374.875 148.606 374.227 148.606C373.543 148.606 372.931 148.75 372.391 149.038C371.851 149.326 371.389 149.704 371.005 150.172C370.633 150.64 370.345 151.174 370.141 151.774C369.937 152.374 369.835 152.986 369.835 153.61ZM393.29 160V147.22H398.618C399.182 147.22 399.698 147.34 400.166 147.58C400.646 147.808 401.054 148.12 401.39 148.516C401.738 148.9 402.008 149.338 402.2 149.83C402.392 150.31 402.488 150.802 402.488 151.306C402.488 151.834 402.398 152.344 402.218 152.836C402.038 153.328 401.78 153.766 401.444 154.15C401.12 154.534 400.724 154.84 400.256 155.068C399.8 155.296 399.29 155.41 398.726 155.41H394.91V160H393.29ZM394.91 153.97H398.636C398.972 153.97 399.272 153.904 399.536 153.772C399.812 153.628 400.046 153.436 400.238 153.196C400.43 152.944 400.58 152.656 400.688 152.332C400.796 152.008 400.85 151.666 400.85 151.306C400.85 150.934 400.784 150.586 400.652 150.262C400.532 149.938 400.364 149.656 400.148 149.416C399.944 149.176 399.698 148.99 399.41 148.858C399.134 148.726 398.84 148.66 398.528 148.66H394.91V153.97ZM426.357 160V150.118L422.109 157.696H421.191L416.925 150.118V160H415.305V147.22H417.015L421.641 155.518L426.285 147.22H427.977V160H426.357ZM450.513 158.56V160H441.837V147.22H450.351V148.66H443.457V152.8H449.451V154.15H443.457V158.56H450.513ZM465.155 150.244V160H463.535V147.22H464.795L472.715 157.174V147.238H474.335V160H472.967L465.155 150.244ZM497.403 148.66H492.993V160H491.373V148.66H486.963V147.22H497.403V148.66ZM532.358 149.902C532.214 149.734 532.022 149.572 531.782 149.416C531.542 149.26 531.272 149.122 530.972 149.002C530.672 148.87 530.342 148.768 529.982 148.696C529.634 148.612 529.268 148.57 528.884 148.57C527.888 148.57 527.156 148.756 526.688 149.128C526.232 149.5 526.004 150.01 526.004 150.658C526.004 151.006 526.07 151.294 526.202 151.522C526.334 151.75 526.538 151.948 526.814 152.116C527.102 152.272 527.456 152.41 527.876 152.53C528.296 152.65 528.794 152.776 529.37 152.908C530.03 153.052 530.624 153.22 531.152 153.412C531.692 153.592 532.148 153.82 532.52 154.096C532.904 154.372 533.192 154.708 533.384 155.104C533.588 155.5 533.69 155.986 533.69 156.562C533.69 157.174 533.57 157.708 533.33 158.164C533.09 158.608 532.76 158.98 532.34 159.28C531.932 159.568 531.446 159.784 530.882 159.928C530.318 160.06 529.706 160.126 529.046 160.126C528.062 160.126 527.126 159.976 526.238 159.676C525.362 159.364 524.564 158.914 523.844 158.326L524.618 156.958C524.81 157.162 525.056 157.366 525.356 157.57C525.668 157.774 526.016 157.96 526.4 158.128C526.796 158.284 527.216 158.416 527.66 158.524C528.116 158.62 528.59 158.668 529.082 158.668C529.994 158.668 530.702 158.506 531.206 158.182C531.71 157.858 531.962 157.372 531.962 156.724C531.962 156.364 531.878 156.064 531.71 155.824C531.554 155.572 531.32 155.356 531.008 155.176C530.696 154.996 530.306 154.84 529.838 154.708C529.382 154.564 528.86 154.42 528.272 154.276C527.624 154.12 527.054 153.952 526.562 153.772C526.07 153.592 525.656 153.376 525.32 153.124C524.996 152.872 524.75 152.566 524.582 152.206C524.414 151.846 524.33 151.414 524.33 150.91C524.33 150.298 524.444 149.758 524.672 149.29C524.9 148.822 525.218 148.426 525.626 148.102C526.034 147.778 526.52 147.538 527.084 147.382C527.648 147.214 528.26 147.13 528.92 147.13C529.784 147.13 530.564 147.262 531.26 147.526C531.956 147.79 532.574 148.144 533.114 148.588L532.358 149.902ZM555.836 148.66H551.426V160H549.806V148.66H545.396V147.22H555.836V148.66ZM573.733 158.632C574.477 158.632 575.095 158.488 575.587 158.2C576.079 157.912 576.469 157.54 576.757 157.084C577.057 156.616 577.267 156.088 577.387 155.5C577.507 154.9 577.567 154.294 577.567 153.682V147.22H579.187V153.682C579.187 154.546 579.085 155.368 578.881 156.148C578.689 156.916 578.377 157.594 577.945 158.182C577.513 158.77 576.949 159.238 576.253 159.586C575.569 159.922 574.735 160.09 573.751 160.09C572.731 160.09 571.873 159.91 571.177 159.55C570.481 159.19 569.917 158.716 569.485 158.128C569.065 157.528 568.759 156.844 568.567 156.076C568.387 155.296 568.297 154.498 568.297 153.682V147.22H569.917V153.682C569.917 154.318 569.977 154.936 570.097 155.536C570.229 156.124 570.439 156.646 570.727 157.102C571.027 157.558 571.417 157.93 571.897 158.218C572.389 158.494 573.001 158.632 573.733 158.632ZM592.865 160V147.22H597.293C598.313 147.22 599.207 147.388 599.975 147.724C600.755 148.06 601.403 148.516 601.919 149.092C602.435 149.668 602.819 150.346 603.071 151.126C603.335 151.894 603.467 152.716 603.467 153.592C603.467 154.564 603.323 155.446 603.035 156.238C602.747 157.018 602.333 157.69 601.793 158.254C601.253 158.806 600.599 159.238 599.831 159.55C599.075 159.85 598.229 160 597.293 160H592.865ZM601.829 153.592C601.829 152.872 601.727 152.212 601.523 151.612C601.331 151 601.037 150.478 600.641 150.046C600.257 149.614 599.783 149.278 599.219 149.038C598.655 148.786 598.013 148.66 597.293 148.66H594.485V158.56H597.293C598.025 158.56 598.673 158.434 599.237 158.182C599.813 157.93 600.287 157.582 600.659 157.138C601.043 156.694 601.331 156.172 601.523 155.572C601.727 154.96 601.829 154.3 601.829 153.592ZM616.55 160V147.22H618.17V160H616.55ZM637.209 160.09C636.309 160.09 635.487 159.91 634.743 159.55C634.011 159.178 633.381 158.692 632.853 158.092C632.325 157.48 631.917 156.784 631.629 156.004C631.341 155.224 631.197 154.426 631.197 153.61C631.197 152.758 631.347 151.942 631.647 151.162C631.959 150.382 632.385 149.692 632.925 149.092C633.465 148.492 634.101 148.018 634.833 147.67C635.577 147.31 636.381 147.13 637.245 147.13C638.145 147.13 638.961 147.322 639.693 147.706C640.425 148.078 641.055 148.57 641.583 149.182C642.111 149.794 642.519 150.49 642.807 151.27C643.095 152.038 643.239 152.824 643.239 153.628C643.239 154.48 643.083 155.296 642.771 156.076C642.471 156.856 642.051 157.546 641.511 158.146C640.983 158.734 640.347 159.208 639.603 159.568C638.871 159.916 638.073 160.09 637.209 160.09ZM632.835 153.61C632.835 154.258 632.937 154.888 633.141 155.5C633.357 156.1 633.657 156.634 634.041 157.102C634.425 157.57 634.887 157.942 635.427 158.218C635.967 158.494 636.567 158.632 637.227 158.632C637.911 158.632 638.523 158.488 639.063 158.2C639.603 157.9 640.059 157.516 640.431 157.048C640.815 156.568 641.103 156.028 641.295 155.428C641.499 154.828 641.601 154.222 641.601 153.61C641.601 152.962 641.493 152.338 641.277 151.738C641.073 151.126 640.773 150.592 640.377 150.136C639.993 149.668 639.531 149.296 638.991 149.02C638.463 148.744 637.875 148.606 637.227 148.606C636.543 148.606 635.931 148.75 635.391 149.038C634.851 149.326 634.389 149.704 634.005 150.172C633.633 150.64 633.345 151.174 633.141 151.774C632.937 152.374 632.835 152.986 632.835 153.61Z" fill="white"/>
</svg>
